<?xml version="1.0" encoding="utf-8"?>
<!-- Generator: Adobe Illustrator 24.1.1, SVG Export Plug-In . SVG Version: 6.00 Build 0)  -->
<svg version="1.1" xmlns="http://www.w3.org/2000/svg" xmlns:xlink="http://www.w3.org/1999/xlink" x="0px" y="0px"
	 viewBox="0 0 750 500" style="enable-background:new 0 0 750 500;" xml:space="preserve">
<style type="text/css">
	.st0{fill:#0C3026;}
	.st1{opacity:0.8;}
	.st2{clip-path:url(#XMLID_3_);fill:url(#SVGID_1_);}
	.st3{clip-path:url(#XMLID_3_);fill:url(#SVGID_2_);}
	.st4{clip-path:url(#XMLID_3_);fill:url(#SVGID_3_);}
	.st5{clip-path:url(#XMLID_3_);fill:url(#SVGID_4_);}
	.st6{clip-path:url(#XMLID_3_);fill:url(#SVGID_5_);}
	.st7{clip-path:url(#XMLID_3_);fill:url(#SVGID_6_);}
	.st8{clip-path:url(#XMLID_5_);fill:url(#SVGID_7_);}
	.st9{clip-path:url(#XMLID_5_);fill:url(#SVGID_8_);}
	.st10{clip-path:url(#XMLID_5_);fill:url(#SVGID_9_);}
	.st11{clip-path:url(#XMLID_5_);fill:url(#SVGID_10_);}
	.st12{clip-path:url(#XMLID_5_);fill:url(#SVGID_11_);}
	.st13{fill:url(#SVGID_12_);}
	.st14{clip-path:url(#XMLID_7_);fill:url(#SVGID_13_);}
	.st15{clip-path:url(#XMLID_7_);fill:url(#SVGID_14_);}
	.st16{clip-path:url(#XMLID_7_);fill:url(#SVGID_15_);}
	.st17{clip-path:url(#XMLID_7_);fill:url(#SVGID_16_);}
	.st18{clip-path:url(#XMLID_7_);fill:url(#SVGID_17_);}
	.st19{clip-path:url(#XMLID_7_);}
	.st20{clip-path:url(#XMLID_9_);fill:url(#SVGID_18_);}
	.st21{clip-path:url(#XMLID_9_);fill:url(#SVGID_19_);}
	.st22{fill:url(#SVGID_20_);}
	.st23{fill:url(#SVGID_21_);}
	.st24{fill:url(#SVGID_22_);}
	.st25{fill:url(#SVGID_23_);}
	.st26{fill:url(#SVGID_24_);}
	.st27{opacity:0.93;}
	.st28{fill:url(#SVGID_25_);}
	.st29{fill:url(#SVGID_26_);}
	.st30{fill:url(#SVGID_27_);}
	.st31{fill:url(#SVGID_28_);}
	.st32{fill:url(#SVGID_29_);}
	.st33{fill:url(#SVGID_30_);}
	.st34{fill:url(#XMLID_10_);}
</style>
<g id="BACKGROUND">
	<rect x="-31.6" y="-54.2" class="st0" width="813.1" height="608.4"/>
	<g class="st1">
		<defs>
			<path id="XMLID_67_" class="st1" d="M674.5,88.1c90.5-68.1,212,118.4,252.7,228.8c55.4,150.2,149.9,99.3,221.8,119.5
				c95.4,26.7,67.2,145.7-60.2,150.5C834.7,596.5,833.9,865.7,640.6,746C447.2,626.2,399.4,325.7,521.6,293.8S609,137.4,674.5,88.1z
				"/>
		</defs>
		
			<linearGradient id="XMLID_2_" gradientUnits="userSpaceOnUse" x1="857.0343" y1="639.2103" x2="828.4387" y2="142.8657" gradientTransform="matrix(0.9962 8.700000e-02 -8.700000e-02 0.9962 25.8894 -49.0543)">
			<stop  offset="0" style="stop-color:#756C6B"/>
			<stop  offset="1" style="stop-color:#FF9B94"/>
		</linearGradient>
		<use xlink:href="#XMLID_67_"  style="overflow:visible;fill:url(#XMLID_2_);"/>
		<clipPath id="XMLID_3_">
			<use xlink:href="#XMLID_67_"  style="overflow:visible;"/>
		</clipPath>
		
			<linearGradient id="SVGID_1_" gradientUnits="userSpaceOnUse" x1="740.9657" y1="598.9296" x2="969.2227" y2="252.7137" gradientTransform="matrix(0.9962 8.700000e-02 -8.700000e-02 0.9962 25.8894 -49.0543)">
			<stop  offset="0" style="stop-color:#756C6B"/>
			<stop  offset="1" style="stop-color:#FF9B94"/>
		</linearGradient>
		<polygon class="st2" points="1265.6,911.6 356,832.2 431.5,-32.3 1341.1,47.1 		"/>
		
			<linearGradient id="SVGID_2_" gradientUnits="userSpaceOnUse" x1="831.5377" y1="682.2187" x2="664.0469" y2="417.7061" gradientTransform="matrix(0.9962 8.700000e-02 -8.700000e-02 0.9962 25.8894 -49.0543)">
			<stop  offset="0" style="stop-color:#A2A2A2"/>
			<stop  offset="1" style="stop-color:#FFFFFF;stop-opacity:0"/>
		</linearGradient>
		<path class="st3" d="M499.1,587.5c39,73,126.3-4.5,104.7-88.4c-21.7-83.9,91-20.8,133.4-56.3c55.4-46.4,69.4-320.3,165.8-179.7
			c0,0-69.7-223.4-71.7-223.2c-2.1,0.2-180.7-20.6-180.7-20.6L522.9,76.9c0,0-124.4,178.8-130.2,184.4c-5.8,5.6-49.9,173-52.8,180.9
			c-2.8,8,23.1,158.9,23.1,158.9s48.5,77,53.4,79.5"/>
		
			<linearGradient id="SVGID_3_" gradientUnits="userSpaceOnUse" x1="624.3441" y1="495.3452" x2="544.6838" y2="275.7687" gradientTransform="matrix(0.9962 8.700000e-02 -8.700000e-02 0.9962 25.8894 -49.0543)">
			<stop  offset="0" style="stop-color:#A2A2A2"/>
			<stop  offset="1" style="stop-color:#FFFFFF;stop-opacity:0"/>
		</linearGradient>
		<path class="st4" d="M463.1,488.5c-17.6-64.7,7.2-101.6,58.3-91.4c51.1,10.1,68,21.9,86.4-18.6c18.4-40.4,27.1-40.7,57.5-43.8
			c35.9-3.7,58.3-20.4,56.3-55.4c-1.6-28.3-31.8-39.2-53.7-76.4c-14.2-24.2-34.9-95.5,24.6-124.8l-61.8-30.1L509.4,84.8L418.9,159
			l-42.1,83.5l-14.9,88.9l27.4,109"/>
		
			<linearGradient id="SVGID_4_" gradientUnits="userSpaceOnUse" x1="553.9142" y1="426.9986" x2="532.6469" y2="57.8525" gradientTransform="matrix(0.9962 8.700000e-02 -8.700000e-02 0.9962 25.8894 -49.0543)">
			<stop  offset="0" style="stop-color:#756C6B"/>
			<stop  offset="1" style="stop-color:#FF9B94"/>
		</linearGradient>
		<path class="st5" d="M692.5,78c-56.2,33.4-51.7,121.9-13.7,157c38,35.1,45.4,82.9-25.5,89c-70.9,6.1-30.5,88.6-115.1,62.7
			c-84.6-25.8-84.7,58.2-76,122.5l-112.9-91.9l59.3-197.5l146.1-102.5L677.3,5.3L744.9-5"/>
		
			<linearGradient id="SVGID_5_" gradientUnits="userSpaceOnUse" x1="682.5206" y1="340.1383" x2="445.0724" y2="119.5411" gradientTransform="matrix(0.9962 8.700000e-02 -8.700000e-02 0.9962 25.8894 -49.0543)">
			<stop  offset="0" style="stop-color:#FFFFFF"/>
			<stop  offset="1" style="stop-color:#FFFFFF;stop-opacity:0"/>
		</linearGradient>
		<path class="st6" d="M692.5,78c-56.2,33.4-51.7,121.9-13.7,157c38,35.1,45.4,82.9-25.5,89c-70.9,6.1-30.5,88.6-115.1,62.7
			c-84.6-25.8-84.7,58.2-76,122.5l-112.9-91.9l59.3-197.5l146.1-102.5L677.3,5.3L744.9-5"/>
		
			<linearGradient id="SVGID_6_" gradientUnits="userSpaceOnUse" x1="600.9171" y1="476.9644" x2="506.9588" y2="228.792" gradientTransform="matrix(0.9962 8.700000e-02 -8.700000e-02 0.9962 25.8894 -49.0543)">
			<stop  offset="0" style="stop-color:#A2A2A2"/>
			<stop  offset="1" style="stop-color:#FFFFFF;stop-opacity:0"/>
		</linearGradient>
		<path class="st7" d="M454.9,401.7c11.4-130.9,142.8-72.5,175.7-111.5c25.5-30.2-17.5-52.5,11.4-161.8
			c28.7-108.4-122.2-16-122.2-16l-131,124.2l-28.5,53.5"/>
	</g>
	<g class="st1">
		<g>
			<defs>
				<path id="XMLID_66_" d="M91.5,13.1c122.8,38.2,153.3,174.1,248.8,126.3c95.4-47.8,98.2,43.3,182.2-8.6
					c84-51.9,60.9-224.9-86.9-218.1c-63.5,2.9-151.9,95.1-206.3,26.9C108.9-211.4-30.9-25.1,91.5,13.1z"/>
			</defs>
			<linearGradient id="XMLID_4_" gradientUnits="userSpaceOnUse" x1="541.6765" y1="-122.4519" x2="121.593" y2="115.3796">
				<stop  offset="0" style="stop-color:#0C3026"/>
				<stop  offset="1" style="stop-color:#7FA08C"/>
			</linearGradient>
			<use xlink:href="#XMLID_66_"  style="overflow:visible;fill:url(#XMLID_4_);"/>
			<clipPath id="XMLID_5_">
				<use xlink:href="#XMLID_66_"  style="overflow:visible;"/>
			</clipPath>
			<linearGradient id="SVGID_7_" gradientUnits="userSpaceOnUse" x1="193.0285" y1="129.0404" x2="478.6865" y2="-168.2505">
				<stop  offset="0" style="stop-color:#0C3026"/>
				<stop  offset="1" style="stop-color:#7FA08C"/>
			</linearGradient>
			<rect x="-17.8" y="-215.6" class="st8" width="640" height="462.1"/>
			<linearGradient id="SVGID_8_" gradientUnits="userSpaceOnUse" x1="413.4056" y1="361.6956" x2="482.8524" y2="-22.3038">
				<stop  offset="0" style="stop-color:#FFFFFF"/>
				<stop  offset="1" style="stop-color:#FFFFFF;stop-opacity:0"/>
			</linearGradient>
			<path class="st9" d="M331.3-48.2c75-26.9,60.9,92.1,104.6,110c31.9,13.1,34.8-22.1,77.7-20.7c42.8,1.3,49.7,52.1,26.3,75.7
				l55.3,10.4c0,0,77.6-82.7,78.6-99.1s-21.4-146.6-21.4-146.6l-118.5-75c0,0-106.1,7.1-121.5,11.2c-15.4,4.1-61.3,24.5-81.2,34.7
				c-20,10.2-29.1,17.4-29.1,17.4"/>
			<linearGradient id="SVGID_9_" gradientUnits="userSpaceOnUse" x1="343.824" y1="156.8819" x2="268.5679" y2="51.1785">
				<stop  offset="0" style="stop-color:#A2A2A2"/>
				<stop  offset="1" style="stop-color:#FFFFFF;stop-opacity:0"/>
			</linearGradient>
			<path class="st10" d="M204,87.5c0,0,23.7,27.9,79.3,43.7c55.6,15.8,71.1-86.3,71.1-86.3C333,39.8,325,48,307.5,82
				C283.3,129.1,248.6,122.2,204,87.5"/>
			<linearGradient id="SVGID_10_" gradientUnits="userSpaceOnUse" x1="395.7615" y1="71.606" x2="197.6278" y2="183.78">
				<stop  offset="0" style="stop-color:#0C3026"/>
				<stop  offset="1" style="stop-color:#7FA08C"/>
			</linearGradient>
			<path class="st11" d="M188.3,72.5c40.3,42.1,92.7,65,115.7,35c17.7-23.1,22.8-68.3,50.4-62.7c32,6.5-3.9,66.9,52.3,81.6l5.8,52.2
				l-131.8,66.7l-100.8-95.8l-5.2-27.7"/>
			<linearGradient id="SVGID_11_" gradientUnits="userSpaceOnUse" x1="336.7614" y1="50.8071" x2="360.4351" y2="201.9546">
				<stop  offset="0" style="stop-color:#FFFFFF"/>
				<stop  offset="1" style="stop-color:#FFFFFF;stop-opacity:0"/>
			</linearGradient>
			<path class="st12" d="M188.3,72.5c40.3,42.1,92.7,65,115.7,35c17.7-23.1,22.3-62.4,50.4-62.7c44.8-0.5,78.5,128.3,168,85.9
				L479.6,226l-198.9,19.2l-100.8-95.8l-5.2-27.7"/>
		</g>
	</g>
	<g class="st1">
		
			<linearGradient id="SVGID_12_" gradientUnits="userSpaceOnUse" x1="810.8436" y1="-616.1655" x2="1205.9452" y2="-430.286" gradientTransform="matrix(0 -1 1 0 617.776 1454.6814)">
			<stop  offset="0" style="stop-color:#A2A2A2"/>
			<stop  offset="1" style="stop-color:#FFFFFF;stop-opacity:0"/>
		</linearGradient>
		<path class="st13" d="M-31.1,536.3c66.9,24.7,96.1-13.1,110.8-34.9c14.7-21.7,15.6-46.8,96-58c80.4-11.2,135.9-80.6,68.4-152.2
			l-261.2,85.7L-50,477.3"/>
		<g>
			<defs>
				<path id="XMLID_64_" d="M-130.9,410.8c77.8,181.4,173,140.1,200.7,81.1c27.8-59.1,76.4-56.8,127-68.5
					c64.5-15,97.2-93.3,34-144.9c-53.4-43.6-139.6-29-155.7-112.7C49.9,34.4-86,14.3-130.9,106.2
					C-169.7,185.6-164.2,333.2-130.9,410.8z"/>
			</defs>
			
				<linearGradient id="XMLID_6_" gradientUnits="userSpaceOnUse" x1="1418.0239" y1="-739.7615" x2="973.1159" y2="-487.8755" gradientTransform="matrix(0 -1 1 0 617.776 1454.6814)">
				<stop  offset="0" style="stop-color:#7FA08C"/>
				<stop  offset="1" style="stop-color:#FF9D9A"/>
			</linearGradient>
			<use xlink:href="#XMLID_64_"  style="overflow:visible;fill:url(#XMLID_6_);"/>
			<clipPath id="XMLID_7_">
				<use xlink:href="#XMLID_64_"  style="overflow:visible;"/>
			</clipPath>
			
				<linearGradient id="SVGID_13_" gradientUnits="userSpaceOnUse" x1="1370.7815" y1="-626.5869" x2="1024.0955" y2="-501.2266" gradientTransform="matrix(0 -1 1 0 617.776 1454.6814)">
				<stop  offset="0" style="stop-color:#7FA08C"/>
				<stop  offset="1" style="stop-color:#FF9D9A"/>
			</linearGradient>
			<polygon class="st14" points="364.9,-21.7 364.9,609.5 -230.7,609.5 -230.7,-21.7 			"/>
			<linearGradient id="SVGID_14_" gradientUnits="userSpaceOnUse" x1="146.1097" y1="328.1726" x2="-148.018" y2="312.0877">
				<stop  offset="0" style="stop-color:#FFFFFF"/>
				<stop  offset="1" style="stop-color:#FFFFFF;stop-opacity:0"/>
			</linearGradient>
			<path class="st15" d="M-98.2,53.3c-68.2,82-53.8,177.6-16.9,144c41.4-37.5,90.4,11.7,41.4,59.5s-39.8,102.7-9.2,126.6
				c48.3,37.7-26.8,124.1,88.9,186.9c115.7,62.8-168.4,68.2-168.4,68.2l-114.2-237.3L-236,29.6l120.3-42.9"/>
			
				<linearGradient id="SVGID_15_" gradientUnits="userSpaceOnUse" x1="1227.7994" y1="-346.7607" x2="1027.7987" y2="-538.116" gradientTransform="matrix(0 -1 1 0 617.776 1454.6814)">
				<stop  offset="0" style="stop-color:#A2A2A2"/>
				<stop  offset="1" style="stop-color:#FFFFFF;stop-opacity:0"/>
			</linearGradient>
			<path class="st16" d="M49.2,352.3c47.2,47.8,84.1-1.1,112.1-12.7c16.7-6.9,42.7-12.3,56.1,6.9c8.8,12.7,8.2,34.1-3.1,54.6
				l30.2-22.3l6.3-54.8c0,0-51.3-52.4-58.2-52.4c-6.9,0-80.5-2.9-80.5-2.9l-35.9,40.3l-11,20.2L49.2,352.3z"/>
			
				<linearGradient id="SVGID_16_" gradientUnits="userSpaceOnUse" x1="-54.2427" y1="909.9501" x2="136.1532" y2="665.4225" gradientTransform="matrix(0 1 -1 0 847.0985 144.2137)">
				<stop  offset="0" style="stop-color:#A2A2A2"/>
				<stop  offset="1" style="stop-color:#FFFFFF;stop-opacity:0"/>
			</linearGradient>
			<path class="st17" d="M-11.1,55C25.6,75.6,48.3,126.4,36.1,189C22,261.9-4.4,354.6,74.1,366.6c0,0,77.8-131.8,81.4-135.6
				c3.6-3.7,12-121.9,12-121.9L91.8,28.5L-11.1,6.1L-45.4,21"/>
			
				<linearGradient id="SVGID_17_" gradientUnits="userSpaceOnUse" x1="1354.8369" y1="-484.0514" x2="1124.2034" y2="-400.6552" gradientTransform="matrix(0 -1 1 0 617.776 1454.6814)">
				<stop  offset="0" style="stop-color:#7FA08C"/>
				<stop  offset="1" style="stop-color:#FF9D9A"/>
			</linearGradient>
			<path class="st18" d="M154.3,431.8c96-21.2,91.9-100.8,45.9-116.8c-48.6-16.9-93.8,78.8-143,44.6c-29.4-20.5-22.9-66.6-11-135.7
				C53.4,182.3,70.1,88.9-11.1,55l36.2-39.5l228.2,62.2L371,261l-19.9,156.8l-112.4,83.7L154.3,431.8z"/>
			<g class="st19">
				<defs>
					<path id="XMLID_65_" d="M154.3,431.8c96-21.2,91.9-100.8,45.9-116.8c-48.6-16.9-93.8,78.8-143,44.6
						c-29.4-20.5-22.9-66.6-11-135.7C53.4,182.3,70.1,88.9-11.1,55l36.2-39.5l228.2,62.2L371,261l-19.9,156.8l-112.4,83.7
						L154.3,431.8z"/>
				</defs>
				
					<linearGradient id="XMLID_8_" gradientUnits="userSpaceOnUse" x1="1089.9243" y1="-554.5807" x2="1353.0955" y2="-335.622" gradientTransform="matrix(0 -1 1 0 617.776 1454.6814)">
					<stop  offset="0" style="stop-color:#FFFFFF"/>
					<stop  offset="1" style="stop-color:#FFFFFF;stop-opacity:0"/>
				</linearGradient>
				<use xlink:href="#XMLID_65_"  style="overflow:visible;fill:url(#XMLID_8_);"/>
				<clipPath id="XMLID_9_">
					<use xlink:href="#XMLID_65_"  style="overflow:visible;"/>
				</clipPath>
				<linearGradient id="SVGID_18_" gradientUnits="userSpaceOnUse" x1="20.9834" y1="360.7368" x2="216.047" y2="244.3115">
					<stop  offset="0" style="stop-color:#FFFFFF"/>
					<stop  offset="1" style="stop-color:#FFFFFF;stop-opacity:0"/>
				</linearGradient>
				<rect x="-45.4" y="-35.3" class="st20" width="481" height="584.2"/>
				<linearGradient id="SVGID_19_" gradientUnits="userSpaceOnUse" x1="-59.2134" y1="358.0085" x2="180.7866" y2="336.5617">
					<stop  offset="0" style="stop-color:#A2A2A2"/>
					<stop  offset="1" style="stop-color:#FFFFFF;stop-opacity:0"/>
				</linearGradient>
				<path class="st21" d="M75.1,165.7c20.5,75.8-25.9,232,74.9,161.6l64.8,26.9L35,436.5l145,144l199.5-83.7l27.7-142.6l-22.6-161.7
					L264.8,95.4l-69.1-4"/>
			</g>
		</g>
		<g>
			<linearGradient id="SVGID_20_" gradientUnits="userSpaceOnUse" x1="19.816" y1="329.9664" x2="83.1377" y2="253.8587">
				<stop  offset="0" style="stop-color:#FFFFFF"/>
				<stop  offset="1" style="stop-color:#FFFFFF;stop-opacity:0"/>
			</linearGradient>
			<path class="st22" d="M57.2,359.5c-5-3.3-9.3-7.6-12.6-12.7c-3.3-5.1-5.4-10.8-6.9-16.6c-2.8-11.7-2.9-23.9-2.2-35.8
				c0.4-6,0.9-11.9,1.6-17.8c0.7-5.9,1.6-11.8,2.5-17.7c1.9-11.8,4.1-23.5,6.5-35.1l-5,35.4c-1.6,11.8-3,23.6-3.7,35.4
				c-0.4,5.9-0.5,11.8-0.3,17.8c0.2,5.9,0.8,11.8,2,17.6c1.3,5.7,3.1,11.4,6.2,16.5C48.3,351.5,52.4,355.9,57.2,359.5z"/>
		</g>
	</g>
	<g>
		
			<image style="overflow:visible;opacity:0.2;" width="206" height="206" xlink:href="49AF35CD.png"  transform="matrix(0.48 0 0 0.48 105.48 195.6)">
		</image>
		<g>
			<linearGradient id="SVGID_21_" gradientUnits="userSpaceOnUse" x1="126.513" y1="280.0771" x2="182.7682" y2="204.0955">
				<stop  offset="0" style="stop-color:#7FA08C"/>
				<stop  offset="1" style="stop-color:#FF9D9A"/>
			</linearGradient>
			<circle class="st23" cx="154.7" cy="241.9" r="25.2"/>
		</g>
	</g>
	<g>
		
			<image style="overflow:visible;opacity:0.2;" width="174" height="174" xlink:href="49AF35CE.png"  transform="matrix(0.48 0 0 0.48 480.36 220.56)">
		</image>
		<g>
			<linearGradient id="SVGID_22_" gradientUnits="userSpaceOnUse" x1="547.9792" y1="232.2523" x2="501.8053" y2="280.7742">
				<stop  offset="0" style="stop-color:#FF9B94"/>
				<stop  offset="1" style="stop-color:#756C6B"/>
			</linearGradient>
			<circle class="st24" cx="522.2" cy="259.4" r="17.5"/>
		</g>
	</g>
	<g>
		
			<image style="overflow:visible;opacity:0.2;" width="163" height="163" xlink:href="49AF35CC.png"  transform="matrix(0.48 0 0 0.48 225.96 163.92)">
		</image>
		<g>
			<linearGradient id="SVGID_23_" gradientUnits="userSpaceOnUse" x1="247.2072" y1="214.8829" x2="282.4809" y2="185.2848">
				<stop  offset="0" style="stop-color:#0C3026"/>
				<stop  offset="0.7707" style="stop-color:#7FA08C"/>
			</linearGradient>
			<circle class="st25" cx="265.1" cy="199.9" r="14.8"/>
		</g>
	</g>
	<g>
		
			<image style="overflow:visible;opacity:0.2;" width="254" height="254" xlink:href="49AF35C4.png"  transform="matrix(0.48 0 0 0.48 33 387.6)">
		</image>
		<g>
			<linearGradient id="SVGID_24_" gradientUnits="userSpaceOnUse" x1="128.0607" y1="398.9961" x2="59.9738" y2="491.3438">
				<stop  offset="0" style="stop-color:#FF9D9A"/>
				<stop  offset="1" style="stop-color:#7FA08C"/>
			</linearGradient>
			<circle class="st26" cx="93.9" cy="445.4" r="36.7"/>
		</g>
	</g>
	<g class="st27">
		
			<image style="overflow:visible;opacity:0.2;" width="211" height="211" xlink:href="49AF35C5.png"  transform="matrix(0.48 0 0 0.48 483.72 71.76)">
		</image>
		<g>
			<linearGradient id="SVGID_25_" gradientUnits="userSpaceOnUse" x1="511.6306" y1="138.327" x2="560.1374" y2="97.625">
				<stop  offset="0" style="stop-color:#0C3026"/>
				<stop  offset="1" style="stop-color:#7FA08C"/>
			</linearGradient>
			<circle class="st28" cx="534.4" cy="119.2" r="26.4"/>
		</g>
	</g>
	<g>
		
			<image style="overflow:visible;opacity:0.2;" width="297" height="297" xlink:href="49AF35C2.png"  transform="matrix(0.48 0 0 0.48 78.6 4.56)">
		</image>
		<g>
			<linearGradient id="SVGID_26_" gradientUnits="userSpaceOnUse" x1="94.2849" y1="119.7013" x2="207.7278" y2="24.5115">
				<stop  offset="0" style="stop-color:#0C3026"/>
				<stop  offset="1" style="stop-color:#7FA08C"/>
			</linearGradient>
			<circle class="st29" cx="150" cy="73" r="47.2"/>
		</g>
	</g>
	<g>
		
			<image style="overflow:visible;opacity:0.2;" width="259" height="259" xlink:href="49AF35C3.png"  transform="matrix(0.48 0 0 0.48 506.28 339.12)">
		</image>
		<g>
			
				<linearGradient id="SVGID_27_" gradientUnits="userSpaceOnUse" x1="602.3851" y1="364.3652" x2="542.5148" y2="452.4097" gradientTransform="matrix(0.9962 8.700000e-02 -8.700000e-02 0.9962 25.8894 -49.0543)">
				<stop  offset="0" style="stop-color:#FF9B94"/>
				<stop  offset="1" style="stop-color:#756C6B"/>
			</linearGradient>
			<circle class="st30" cx="568.4" cy="398.1" r="37.9"/>
		</g>
	</g>
	<g>
		
			<image style="overflow:visible;opacity:0.2;" width="426" height="426" xlink:href="49AF35D9.png"  transform="matrix(0.48 0 0 0.48 694.92 202.32)">
		</image>
		<g>
			<linearGradient id="SVGID_28_" gradientUnits="userSpaceOnUse" x1="710.6038" y1="383.1013" x2="869.0815" y2="234.0146">
				<stop  offset="0" style="stop-color:#756C6B"/>
				<stop  offset="1" style="stop-color:#FF9B94"/>
			</linearGradient>
			<circle class="st31" cx="797.1" cy="301.7" r="78.1"/>
		</g>
	</g>
	<linearGradient id="SVGID_29_" gradientUnits="userSpaceOnUse" x1="345.3694" y1="243.3995" x2="785.0294" y2="93.2714">
		<stop  offset="0" style="stop-color:#A2A2A2"/>
		<stop  offset="1" style="stop-color:#FFFFFF;stop-opacity:0"/>
	</linearGradient>
	<path class="st32" d="M673-85.6C611.5-57.9,546.9,67.8,623.2,136C722,224.4,695,314,748.4,320c84.2,9.6,123.8-262.7,88-346.4
		S734.3-113.2,673-85.6z"/>
	<linearGradient id="SVGID_30_" gradientUnits="userSpaceOnUse" x1="525.2986" y1="-52.9052" x2="153.0437" y2="294.8396">
		<stop  offset="0" style="stop-color:#A2A2A2"/>
		<stop  offset="1" style="stop-color:#FFFFFF;stop-opacity:0"/>
	</linearGradient>
	<path class="st33" d="M22.7-53c94.8-61.9,203.5,132.4,236.7,245.3C304.6,346,402.3,301.5,472.7,326.5
		c93.4,33.1,57.2,149.9-70.2,146.1c-254.2-7.5-273.1,260.9-457.9,128.5C-240.3,468.6-267.7,165.6-143.7,142
		C-19.6,118.4-45.9-8.2,22.7-53z"/>
	<linearGradient id="XMLID_10_" gradientUnits="userSpaceOnUse" x1="1100.2017" y1="-426.6585" x2="467.2967" y2="164.5745">
		<stop  offset="0" style="stop-color:#A2A2A2;stop-opacity:0.2"/>
		<stop  offset="1" style="stop-color:#FFFFFF;stop-opacity:0"/>
	</linearGradient>
	<rect id="XMLID_60_" x="-27.4" y="-54.2" class="st34" width="809" height="606.1"/>
</g>
<g id="DESIGNED_BY_FREEPIK">
</g>
</svg>
