<?xml version="1.0" encoding="utf-8"?>
<!-- Generator: Adobe Illustrator 24.1.1, SVG Export Plug-In . SVG Version: 6.00 Build 0)  -->
<svg version="1.1" id="Layer_1" xmlns="http://www.w3.org/2000/svg" xmlns:xlink="http://www.w3.org/1999/xlink" x="0px" y="0px"
	 viewBox="0 0 200 200" style="enable-background:new 0 0 200 200;" xml:space="preserve">
<style type="text/css">
	.st0{fill:#5B8772;}
	.st1{fill:#5B8772;stroke:#5B8772;stroke-width:0.25;stroke-miterlimit:10;}
</style>
<g>
	<path class="st0" d="M40.8,186.6c-5.5-0.9-9.4-3.2-11.6-6.8c-2.3-3.6-3.4-10.4-3.4-20.6c0-7.4,0.4-17,1.3-28.7
		c0.1-0.2,0.1-0.3,0.2-0.6c0-0.3,0.1-0.4,0.2-0.5c0-1.4,0-2.4-0.1-3.2c-0.1-0.7-0.1-1.9-0.1-3.8c0-2.3,0.2-6.6,0.6-12.8
		c0.1-2.7,0.2-5.3,0.2-8.1c0-0.6-0.1-1.2-0.2-1.8c-0.2-0.5-0.4-0.8-0.8-0.8l-0.3-0.5c0-0.5,0.1-0.8,0.2-0.8c0.9-0.4,2.8-0.7,5.5-0.7
		c1.3,0,2.6,0.7,3.9,2c1.3,1.3,2.1,2.8,2.3,4.2c0.1,0.3,0.1,0.7,0.2,1.1c0.1,0.4,0.2,1,0.3,1.7H39l-0.7-0.9c-0.3,0-0.5,1.1-0.6,3.2
		l-0.7,9.7c0,0.9-0.2,5.6-0.6,14.2c-0.9,18.1-1.4,29.7-1.4,34.4c0,1.3,0.1,2.1,0.2,2.2h0.3c-0.1,0.1-0.1,0.3-0.2,0.4
		s-0.2,0.4-0.3,0.7c-0.1,0.3-0.1,0.6-0.1,0.8c0,1,0.2,2.1,0.4,3.3c0.2,0.6,0.3,1.3,0.3,2.2l0.2,0.3c0.3,0,0.4,0.4,0.4,1.3
		c0.1,0.5,0.3,1,0.4,1.6c0.2,0.6,0.5,0.9,1,1.2c1.1,0,1.9-0.4,2.7-1.3c0.4-0.4,0.8-0.6,1.1-0.6s0.8-0.8,1.6-2.3
		c0.4-0.8,0.7-1.2,0.8-1.2s0.5-0.3,0.9-1c0.8-1.3,1.6-2.8,2.4-4.5l0.9-1.7c0.1,0,0.2-0.1,0.4-0.3c0.4-0.4,0.8-1.1,1-1.9
		c0.3-0.4,0.5-0.8,0.8-1.2c0.3-0.3,0.5-0.5,0.8-0.5v-0.5c0-0.8,0.3-1.6,0.8-2.3c0.2-0.3,0.3-0.4,0.4-0.4l0.4,0.2
		c0-0.8,0.1-1.5,0.2-2.3l0.5-0.7c0,1.1,0.3,1.6,0.7,1.6c0.1,0,0.2-0.1,0.3-0.2c0.1-0.1,0.1-0.3,0.1-0.8c-0.2,0.2-0.3,0.3-0.5,0.3
		c-0.1,0-0.2-0.2-0.2-0.4s0.3-0.3,0.7-0.3c0.1,0,0.2,0,0.3-0.1c0.1-0.1,0.2-0.2,0.2-0.3s0.1-0.3,0.3-0.3l1.1,0.3
		c-0.1-0.1-0.2-0.1-0.3-0.2c-0.1,0-0.2-0.3-0.2-0.8l-0.2,0.2l-0.5-0.2l-0.3,0.5c-0.1,0-0.3-0.1-0.5-0.3l-0.2-0.7
		c0-0.3,0.1-0.6,0.2-0.8s0.3-0.8,0.5-1.3c0.2-0.6,0.3-1.1,0.6-1.4s0.3-0.5,0.4-0.5l0.2,0.2l0.3-0.9l-0.3-1l0.4,0.8v0.9
		c0,0.8-0.2,1.2-0.4,1.2l-0.2-0.2c-0.3,0-0.6,0.4-1,1.3c-0.3,0.6-0.3,1.2-0.3,1.6c0,0.3,0.1,0.3,0.2,0.3c0.7-0.4,1-0.8,1-1l-0.5-0.4
		c0-0.1,0.1-0.2,0.2-0.2c0.5,0,0.9-0.4,1.3-1.3c0.6-0.9,0.8-1.7,0.8-2.3l-0.2-0.2H57l-0.2-0.2l-0.2-1.2c0-0.3,0.1-0.5,0.2-0.5
		l0.3,0.3l0.2-0.2l-0.2-1.3c0.3,0.4,0.6,0.9,0.8,1.3c-0.2,0.4-0.4,0.8-0.7,1l0.2,0.2c0.3,0,0.9-1.3,2-3.8c0.1-0.3,0.3-0.5,0.4-0.8
		c0.6-1.3,0.9-1.8,1-1.8v0.2c-0.3,1.1-0.5,1.6-0.7,1.6l-0.3,0.8l0.8-0.5c0.3-0.4,0.5-1.2,0.8-2.3c0-0.3,0.1-0.5,0.2-0.8
		c0.1-0.2,0.1-0.3,0.2-0.3c0.4,0,0.7,0.2,0.7,0.5c0,0.7-0.5,2.2-1.5,4.5l-2.1,4.9c-0.3,1-0.8,2.2-1.5,3.6c-0.8,1.4-1.2,2.5-1.2,3.1
		c0,0.1-0.1,0.3-0.2,0.4c-0.2,0.2-0.3,0.3-0.5,0.3s-0.3,0.3-0.3,0.8s-0.1,0.8-0.2,0.8s-0.3,0.3-0.6,0.8l-0.6,1.2
		c-0.3,0.6-0.3,0.9-0.3,1.1l0.3,0.9h-0.5c-0.3,0-0.5,0.3-0.5,0.8c-0.1,0.3-0.2,0.6-0.2,0.7c-0.1,0.1-0.2,0.2-0.3,0.2
		c-0.2,0-0.3,0.2-0.6,0.5c-0.6,0.8-0.9,1.5-0.9,2.2c0,0.4,0.1,0.6,0.3,0.6c0.9,0,3-3.9,6.3-11.7c3.3-7.8,6.9-17,10.7-27.5
		c3.8-10.5,7.3-20.3,10.2-29.3c2.9-9,4.6-15.1,5-18.2c0-0.6,0.1-1.1,0.2-1.5c0.1-0.4,0.2-0.6,0.3-0.6c0.1,0,0.2-0.3,0.2-1
		c0-0.7,0.2-1,0.4-1.1c0.3,0,0.3-0.1,0.3-0.2c0-0.4,0.1-0.8,0.3-1c1.1-2,2.6-7.1,4.5-15.4c0.6-2.2,0.8-3.3,0.8-3.5
		c0-0.1-0.2-0.1-0.5-0.1c-0.3,0-0.8,1.2-1.7,3.6c0.1-0.5,0.3-0.9,0.3-1.3c0.1-0.3,0.1-0.5,0.2-0.8c0-0.3,0-0.5,0-0.8
		c0-0.3-0.2-0.5-0.5-0.5c-0.5,0-0.9,0.6-1.3,1.8s-0.5,1.9-0.5,2.2c0,0.3-0.1,0.5-0.3,0.5l-0.2-0.3l0.3-1.1c0.1-0.7,0.3-1.3,0.6-1.8
		l0.2-0.7c0-0.1,0-0.2-0.1-0.2h-0.8L80,62c-1.9,0.8-3.5,1.1-4.6,1.1c-0.6,0-2.9,0.3-6.9,1.1c-12.1,2.3-20.2,3.3-24.3,3.3
		c-1.7,0-2.8-0.3-3.3-0.7c-0.3-0.4-0.6-0.7-1-0.7s-0.7-0.2-0.7-0.5c0-0.3-0.2-0.4-0.5-0.4c-0.1,0-0.1-0.1-0.1-0.2
		c-0.1-0.1-0.1-0.6-0.1-1.5c-0.1,0.1-0.3,0.3-0.4,0.4c-0.2,0.2-0.4,0.3-0.8,0.3c-0.3,0-0.5-0.1-0.5-0.2l0.2-0.5c0-0.3-0.2-0.7-0.5-1
		l-0.5-1.1c0-0.3,0.2-0.3,0.5-0.3c0.3,0,0.6-0.1,1-0.2c0-0.5,1.3-0.9,4.1-1.3c3.3-0.6,5-1,5-1.3l-0.3-0.5l0.2-0.2l3.4,0.7l1-0.2
		c1.1-0.5,3.3-1,6.7-1.5c1.7-0.2,2.7-0.3,2.9-0.4l0.5-0.3c0.1,0.1,0.1,0.3,0.2,0.3c0,0.1,0.3,0.2,0.7,0.2c0.5,0,0.8-0.2,0.8-0.5
		c0-0.1,0.5-0.2,1.6-0.2c1,0,1.5-0.1,1.5-0.2s0.1-0.2,0.2-0.2l0.7,0.2c0.1-0.2,0.3-0.3,0.3-0.4s0.2-0.1,0.3-0.2l1.2,0.4v-0.4
		c0-0.3,3.8-1.1,11.3-2.3c6.4-1,9.6-1.6,9.6-1.8l-0.2-0.2l0.3,0.2c0.1,0,0.3-0.2,0.6-0.4s0.8-1.3,1.4-2.8c0,0.6-0.3,1.5-0.7,2.9h0.3
		c0.4-0.3,0.8-1.2,1.3-2.7c0.2-0.6,0.3-1.2,0.3-1.6l-0.3-0.3l-0.3,0.5l1-4.1l-1.2,1.7l0.3-1.3c0-0.3-0.2-0.3-0.4-0.3
		c-0.3,0-0.5-0.1-0.5-0.2l0.3-0.3c0.4-0.3,0.7-0.6,0.8-0.9c0.1-0.3,0.2-0.5,0.3-0.5l0.3,0.2c0.1,0,0.2-0.1,0.2-0.3
		c0-0.2,0.1-0.3,0.3-0.3l0.3,0.2l-0.7,1.4l0.2,0.2c0.3,0,0.7-0.4,1.1-1.3c0.4-0.8,0.8-1.2,1.2-1.2c0.3,0,0.5,0.3,0.5,0.7L96,41.4
		c0,0.3,0.2,0.5,0.5,0.5c0.2,0,0.3-0.1,0.6-0.2s0.6-0.3,1.1-0.8c0.1,0,0.2,0.2,0.4,0.5c0.2,0.4,0.4,0.6,0.8,0.6
		c0.8,0,1.3,0.6,1.3,1.7c0,0.7-0.2,1.3-0.5,2.1c-0.5,1.4-0.8,2.3-0.9,2.8c-0.1,0.3-0.1,0.4-0.1,0.5c-0.1,0.1-0.2,0.2-0.4,0.2
		s-0.3,0.1-0.3,0.2l1,0.1c0.3,0.1,1.6,0.1,3.8,0.1c1.9,0,4.4,0.2,7.6,0.6c3.2,0.4,6.1,1.2,8.7,2.1c2.6,0.9,3.8,2.3,3.8,3.8
		c0,0.6-0.9,0.9-2.7,1c-1.8,0.1-4,0.2-6.8,0.2h-2c-2.8,0-5.7,0.1-8.8,0.3c-3.2,0.3-5.9,0.8-8.2,1.8c-0.3,0.3-0.6,1.5-1.2,3.7
		c-0.6,2.3-1.3,4.8-1.9,7.8c-0.8,2.9-1.4,5.7-2,8.2c-0.4,1.7-0.7,3-0.9,4c-0.3,1.1-0.3,1.6-0.4,1.7L87.5,86l-0.2,1
		c0.2-0.2,0.3-0.3,0.6-0.5c0.3-0.1,0.4-0.3,0.7-0.3c0,0.4-0.2,0.8-0.6,1c-0.3,0.3-0.5,0.7-0.7,1.1c-0.3,0.4-0.6,1.6-1.2,3.4
		c-1.2,4.3-2.8,9.9-5.1,16.8c-5.5,16.8-8.8,26.4-9.8,28.8c-0.3,0.3-0.5,1.2-0.8,2.6l-1.3,2.9c-0.3,0.6-0.5,1.3-0.5,2.1
		c0,0.1,0,0.2-0.1,0.2s-0.3,0.2-0.5,0.5c-0.3,0.4-0.5,0.8-0.8,1.3c-0.6,1.4-0.9,2.3-0.9,2.5c0,0.3-0.3,1-1,2.1
		c-0.4,0.9-0.8,2-1.2,3.2c-0.3,1.3-0.6,1.9-0.8,2.1c-0.3,0.3-0.3,0.5-0.4,0.8s-0.2,0.8-0.2,1.4c0,0.1,0,0.2-0.1,0.2
		s-0.2,0.1-0.3,0.2c-0.1,0.2-0.2,0.3-0.2,0.5c-0.8,1.3-1.2,2.2-1.3,2.6c-0.2,0.4-0.3,0.8-0.4,1.2l-0.5,1.2c-0.2,0-0.3,0.3-0.5,0.8
		c0,0.3-0.1,0.6-0.3,0.9c-0.2,0.4-0.3,0.7-0.5,0.8c-0.4,0.5-0.7,1-0.7,1.5c0,0.2-0.1,0.5-0.3,0.9c-0.3,0.4-0.5,0.8-0.8,1.2
		c-0.4,0.8-0.7,1.4-0.7,2.2c0,0.1-0.2,0.1-0.4,0.1c-0.3,0-1.4,1.8-3.3,5.6l-1.3,1.8c-0.2,0.3-0.5,0.8-0.9,1.5
		c-1.3,1.9-2.3,2.9-2.8,2.9c-0.3,0-0.6,0.1-1.2,0.3c-0.6,0.3-1.3,0.6-2.2,0.8c-0.9,0.3-1.9,0.5-3,0.5H40.8z M28.2,154.6
		c0.1-0.1,0.2-0.3,0.2-0.8c0-0.3,0-0.6,0-0.8l-0.3,0.8c0,0.6,0.1,0.8,0.2,0.8V154.6z M28.4,159.8v-3.6c-0.1,0-0.1,0.4-0.2,1.3
		c-0.1,0.8-0.2,1.8-0.2,2.7c0,0.6,0.1,1.3,0.2,1.8L28.4,159.8z M28.7,168.4c0-0.2,0-0.5,0-1.1c-0.2-1.6-0.3-2.4-0.5-2.4
		c-0.1,0-0.2,0.5-0.2,1.4c0,0.7,0.1,1.3,0.3,1.7c0.1,0.4,0.2,0.7,0.3,0.7S28.7,168.5,28.7,168.4z M28.4,150.7c0.1-0.3,0.1-0.6,0.2-1
		c0-0.4,0-0.8,0-1c-0.1,0-0.2,0.3-0.3,0.7c-0.1,0.4-0.1,0.9-0.1,1.5L28.4,150.7z M28.9,143.1l-0.2-0.5c-0.3,0-0.3,1.3-0.3,3.8
		L28.9,143.1z M28.9,138.7v-0.5l-0.2,0.7v1L28.9,138.7z M29,132.4c-0.1,0-0.1,0.1-0.2,0.2v1C29,133.5,29,133.1,29,132.4z
		 M29.7,178.6c0-0.1,0-0.3-0.1-0.5s-0.2-0.3-0.3-0.3v0.5l0.3,0.5V178.6z M31.1,168.1c0.1-0.3,0.3-0.7,0.3-1.2
		c0.1-0.4,0.1-0.8,0.1-1.3l-0.2-1.2c0-0.3,0.1-0.5,0.3-0.5s0.3-0.1,0.3-0.3l-0.8-1.9c0.1-0.1,0.3-0.2,0.4-0.3
		c0.1-0.1,0.2-0.1,0.2-0.2l-0.2-1.3c0-0.2,0.1-0.3,0.2-0.5c0.1-0.1,0.2-0.3,0.3-0.4c0.1-0.2,0.2-0.4,0.2-0.7s-0.1-0.4-0.3-0.5
		c-0.2,0-0.3-1.7-0.3-5.1c0-1.3,0.1-1.9,0.2-1.9c0.3-0.1,0.6-1.4,0.7-4.1l0.2-5.6c0-0.6,0-1.1,0-1.3c-0.1-0.3-0.2-0.4-0.3-0.4
		l-0.2,0.2c-0.7,0.4-1.2,4.7-1.4,12.7h-0.2c0,2.2-0.1,4.3-0.2,6.2c-0.1,1.9-0.2,3.3-0.2,4.1c0.1,0.3,0.2,1.3,0.2,2.8
		c0,2.1,0.1,3.1,0.3,3.1h0.1C30.8,168.6,31,168.5,31.1,168.1z M31.5,169.5c0-0.4-0.1-0.6-0.3-0.6c-0.4,0-0.6,0.4-0.6,1.3
		c0,0.3,0.1,0.4,0.2,0.7c0.1,0.3,0.1,0.3,0.2,0.3L31.5,169.5z M31.5,180.3l-0.4-0.8c-0.1,0-0.2,0.1-0.2,0.3c0,0.4,0.1,0.7,0.2,0.8
		h0.3L31.5,180.3z M31.8,176c0-1.9-0.2-3.2-0.5-3.8l-0.3-0.2c0.3,3.1,0.6,4.7,0.8,4.7V176z M33.3,153.8l-0.2-0.2l-0.2,0.5
		c0,0.3,0.1,0.3,0.2,0.3C33.2,154.3,33.3,154.1,33.3,153.8z M33.3,158.3c0-0.2,0-0.5,0-1.1l-0.2-0.2l-0.2,0.7c0,0.6,0.1,0.8,0.2,0.8
		S33.3,158.4,33.3,158.3z M33.3,160.8c0-0.1-0.1-0.2-0.2-0.2l-0.2,0.8c0,0.1,0.1,0.2,0.2,0.2C33.2,161.5,33.3,161.2,33.3,160.8z
		 M33.3,163.7v-0.3c0-0.1-0.1-0.2-0.2-0.2L33,164c0,0.1,0.1,0.2,0.2,0.2L33.3,163.7z M45.3,58.2c-0.3,0-0.5-0.1-0.5-0.2
		s0.2-0.2,0.5-0.2l0.4,0.2l-0.1,0.2H45.3z M46.7,173.6h-0.3l-0.5,0.8H46L46.7,173.6z M52.3,162.1c-0.1-0.1-0.1-0.2-0.1-0.3
		c-0.1-0.1-0.2-0.1-0.3-0.1s-0.3,0.1-0.3,0.3s-0.2,0.3-0.3,0.5s-0.1,0.3-0.1,0.3l0.1,0.1c0.1,0.1,0.2,0.1,0.4,0.1
		C52.1,163,52.3,162.7,52.3,162.1z M53.7,171.9c0.3-0.4,0.7-0.8,0.9-1.4c0.3-0.6,0.4-1,0.4-1.3c-0.3,0.3-0.4,0.6-0.7,1
		c-0.3,0.4-0.5,0.8-0.8,1c-0.3,0.3-0.5,0.4-0.6,0.5c-0.2,0.1-0.3,0.2-0.3,0.3c-0.1,0.1-0.1,0.3-0.1,0.3l0.2,0.3
		C53,172.6,53.3,172.3,53.7,171.9z M63,152.4c0.5-1.4,0.8-2.1,0.8-2.1c0.3,0,1.7-3.4,4.3-10.3c2.5-6.8,3.8-10.4,3.8-10.6
		c0.3-0.5,1.3-3.2,2.9-8l2.3-7.4c0.3,0,1.1-2.3,2.5-6.9c0.9-3.3,1.9-6.4,3-9.2c0-0.3,2-7.4,5.9-21.5l1.8-6.6
		c1.4-5.1,2.2-8.4,2.2-9.7c0-0.4-0.1-0.7-0.2-0.7s-0.4,0.6-0.9,1.8c-1.8,8.2-4.5,18.5-8.4,30.9c-3.9,12.5-7.2,22.6-9.9,30.5
		c-0.3,0.5-0.7,1.8-1.3,4c-0.8,2.4-1.4,4.2-2.1,5.3c-5.9,16.6-10.5,27.8-13.9,33.5c-0.5,0.9-0.8,1.7-1,2.1l-0.3,0.7H55
		C56.3,168.3,58.9,163,63,152.4z M55.5,167.5l-0.2-0.2c0-0.3,0.2-0.6,0.5-0.7c0.1,0,0.2,0,0.3,0c0.1,0,0.2,0.1,0.2,0.3
		c0,0.1-0.1,0.2-0.2,0.3c-0.1,0.2-0.3,0.3-0.4,0.3H55.5z M57.5,154.4c0-0.2-0.1-0.3-0.2-0.5l-0.3,0.2l0.2,0.5h0.3V154.4z
		 M57.8,148.2l-0.2-0.9c0-0.3,0.1-0.3,0.2-0.3l0.5,0.2v-1c0-0.3,0.1-0.4,0.3-0.4c0.2,0,0.3-0.1,0.3-0.3c0-0.1-0.2-0.2-0.5-0.2
		c-0.3,0-0.5-0.1-0.5-0.2l0.5-0.6l0.5-0.2l0.3,0.6v-0.6l0.4-0.5c0,0.4-0.3,1.3-0.7,2.5c-0.5,1.3-0.8,2-1.1,2L57.8,148.2z
		 M59.9,142.8c0-0.3,0.1-0.5,0.2-0.8c0.3-0.5,0.6-0.8,0.8-0.8c0,0.3-0.1,0.6-0.3,0.9c-0.3,0.6-0.4,0.9-0.6,0.9L59.9,142.8z
		 M60.9,140.2c0-0.1,0-0.3,0.1-0.4c0-0.2,0-0.3,0.1-0.4s0.1-0.2,0.2-0.2h-0.2c0.1,0,0.2-0.1,0.3-0.2c0.1-0.1,0.1-0.7,0.1-1.8
		c0.1,0,0.1,0,0.2,0c0,0,0.1,0.1,0.2,0.3c0.1,0.3,0.3,0.4,0.3,0.5v-1.3l0.2-0.8c0.2,0,0.3-0.1,0.3-0.3c0-0.2,0-0.4,0-0.8
		s0.1-0.5,0.3-0.5c0.1,0,0.2-0.1,0.3-0.3c0-0.2,0-0.6,0-1.3l0.4,0.2c0.1,0,0.2-0.1,0.2-0.2s0-0.7,0-1.7l0.5,0.3
		c0.1,0,0.2-0.2,0.2-0.5l-0.2-0.5c0-0.2,0.1-0.3,0.3-0.5c0.3-0.1,0.3-0.3,0.3-0.8c0-0.3,0.1-0.5,0.3-0.6c0.2-0.1,0.3-0.3,0.3-0.8
		l-0.2-1h0.2l0.5,0.5v-0.7l0.2-1.3c0.1,0,0.2-0.1,0.3-0.2c0.1-0.1,0.2-0.3,0.2-0.3c0-0.4,0.2-0.7,0.4-0.7c0.1,0,0.2,0.1,0.2,0.3
		c-0.1,0.4-0.8,2.3-2.1,5.7c-0.9,2.7-1.8,4.8-2.3,6.3c-1,2.5-1.6,3.8-1.8,3.8V140.2z M61.2,142.6c0-0.3,0.2-0.8,0.6-1.8l5.3-14.4
		c0.8-2.2,1.3-3.7,1.7-4.6c0.3-0.9,0.7-1.3,1-1.3l0.3,1.3l-0.2,0.3c-0.3-0.1-0.4-0.3-0.7-0.5v1c0,0.9-0.3,2.1-0.8,3.6
		c-0.2,0.6-0.3,1.1-0.4,1.6c-0.2,0.6-0.3,1.2-0.3,1.8c0,0.3-0.2,0.6-0.5,0.8c-0.3,0-0.3,0.2-0.3,0.5c0,0.6-0.1,0.8-0.3,0.8
		s-0.4,0.4-0.4,1.2c0,0.8-0.3,1.3-0.7,1.3c-0.1,0-0.2-0.1-0.3-0.3c-0.2-0.2-0.3-0.4-0.3-0.7c-0.1,0-0.2,0.3-0.2,0.8
		c0,0.4,0.2,0.6,0.5,0.7l-0.2,0.3c0,0.3,0.1,0.4,0.3,0.5c0.2,0.2,0.3,0.3,0.3,0.3c-0.3,0.2-0.5,0.4-0.7,0.7l-0.3,1.4
		c-0.3-0.4-0.6-0.9-0.8-1.4c0.3,0.9,0.5,1.7,0.5,2.3c0,0.6-0.1,1.2-0.2,1.8c-0.2,0.7-0.3,1-0.5,1c-0.3,0-0.3,0.1-0.3,0.3
		s-0.5,0.5-1.5,0.8l-0.6,0.1V142.6z M62.8,141.1c0.2-0.5,0.3-0.9,0.3-1.3l-0.2-0.5c-0.2,0-0.3,0.3-0.5,0.9c-0.2,0.6-0.3,1.3-0.5,1.8
		l0.2,0.2C62.4,142.1,62.6,141.6,62.8,141.1z M67.2,128.1c0-0.2,0-0.3,0-0.5l-0.2-0.2l-0.2,0.8c0,0.1,0.1,0.2,0.2,0.2
		S67.2,128.4,67.2,128.1z M67.9,120.9c0.2-1.1,0.3-1.6,0.5-1.6c0,0.4,0,0.8,0,0.9c-0.1,0.3-0.3,1.1-0.8,2.7L67.9,120.9z M69.2,117.4
		L69.2,117.4l0.2-0.9l0.2,0.2c0,0.3-0.1,0.6-0.2,0.8C69.3,117.5,69.2,117.5,69.2,117.4z M69.7,119.7c-0.2-0.1-0.3-0.3-0.3-0.3
		c1-2.6,1.7-3.9,1.9-3.9c0.1,0.3,0.3,0.8,0.3,1.6c0,0.5-0.2,0.8-0.6,0.9c-0.4,0.1-0.6,0.4-0.6,0.8c0,0.8-0.2,1.1-0.6,1.2
		C69.8,119.9,69.7,119.8,69.7,119.7z M69.7,115.2c0-0.1,0-0.2,0.1-0.3s0.2-0.3,0.3-0.6c0.1-0.3,0.3-0.4,0.4-0.6h0.2
		c0,0.2-0.1,0.4-0.2,0.7c-0.1,0.3-0.3,0.7-0.3,0.9s-0.2,0.4-0.3,0.4S69.7,115.6,69.7,115.2z M71,119.9c0-0.1,0-0.2,0.1-0.4
		c0.1-0.3,0.2-0.3,0.3-0.3l0.2,0.3l-0.3,0.8C71.1,120.2,71,120.2,71,119.9z M71.5,110.8l0.2-1c0.1,0,0.2,0.2,0.2,0.5
		s-0.1,0.5-0.2,0.5H71.5z M72,112.9c0-0.9,1.4-5.7,4.3-14.1c1.3-3.8,1.9-5.6,2.1-5.6c0,0.2-0.2,1-0.6,2.4l-4.1,14l-0.5-0.3v0.7
		c0,0.6-0.1,0.9-0.3,1.1s-0.3,0.3-0.3,0.6l0.2,1.4c0,0.4-0.1,0.7-0.3,0.7C72.2,113.7,72,113.5,72,112.9z M73.3,105
		c0,0.7-0.3,1.8-1,3.4l-0.3,0.9C72.6,106.4,73.1,105,73.3,105z M74.6,57.6l-0.3-0.2c-0.3,0-0.3,0-0.4,0s-0.2,0.1-0.2,0.3h0.7
		C74.5,57.7,74.6,57.7,74.6,57.6z M73.8,102.6l0.3-0.3v-0.6c0.1,0,0.2,0.2,0.2,0.6c0,0.3-0.1,0.5-0.2,0.5L73.8,102.6z M74.6,100.7
		l0.3-2c0.2-0.8,0.4-1.1,0.7-1.1c0,0.4-0.2,1.1-0.4,1.9c-0.3,0.9-0.5,1.3-0.6,1.3V100.7z M75.8,96.9c-0.1-0.1-0.1-0.3-0.1-0.8
		c0.1,0,0.2,0.1,0.2,0.3c0,0.3,0,0.5,0,0.8C75.8,97.1,75.8,97,75.8,96.9z M76.4,94l0.2,0.5c-0.1,0.3-0.1,0.4-0.2,0.6
		s-0.1,0.3-0.2,0.3L76.4,94z M77.1,92l0.2,0.3l-0.3,0.8L77.1,92z M78.3,87.2l0.2-0.3c0.2-0.7,0.3-1,0.5-1c0,0.6-0.2,1.3-0.4,2
		c-0.6,1.8-0.9,2.6-1.2,2.6C77.4,90.1,77.8,89,78.3,87.2z M78.5,92.7l-0.2-0.3c0-0.3,0.1-0.7,0.3-1.1c0.1-0.3,0.3-0.5,0.4-0.5
		c0.1,0,0.2,0.1,0.2,0.2c0,0.5-0.1,1-0.3,1.4l-0.2,0.3H78.5z M79.9,86.8c1.5-5.5,2.8-9.8,3.7-12.8c0,0.8-0.4,3.1-1.3,7.1
		c-0.9,4-1.4,6-1.7,6c-0.3,0.3-0.5,0.8-0.9,1.5l-0.6,1.3C79.2,89.7,79.4,88.7,79.9,86.8z M79.4,84l0.2-0.8c0.1,0,0.2,0.2,0.2,0.5
		l-0.2,0.9l-0.2,0.2V84z M80.5,79.1l0.6-0.2c0,0.3-0.2,0.5-0.5,0.8L80.2,80L80.5,79.1z M83.3,57.4c0-0.1,0-0.1,0-0.2
		c0,0-0.1-0.1-0.3-0.2c-0.1,0-0.3,0-0.3,0.1l-0.2,0.1c0,0.1,0.1,0.1,0.2,0.2c0.1,0.1,0.3,0.2,0.3,0.2L83.3,57.4z M82.4,73.9v-1.1
		c0.1,0,0.2,0.1,0.2,0.3c0,0.3,0,0.5,0,0.8H82.4z M83.3,70.3c0-0.2,0.2-0.7,0.4-1.4c0.3-0.8,0.3-1.2,0.4-1.2c0,0.3-0.1,0.8-0.3,1.3
		c-0.3,1.3-0.6,1.9-0.7,1.9L83.3,70.3z M83.9,72.6l0.2-0.3c0.1,0,0.1,0,0.2,0c0,0,0,0.1,0,0.3l-0.2,0.5C84,73.1,83.9,73,83.9,72.6z
		 M85,68.5c0.4-1.3,0.8-2,0.8-2v0.3c0,0.5-0.3,1.4-0.8,2.8s-0.8,2-1,2L85,68.5z M85.8,55.8c0.4-0.1,0.8-0.3,1.1-0.4
		c0.3-0.1,0.5-0.2,0.5-0.3l-1.8,0.4c-0.3,0-0.6,0.1-0.8,0.2s-0.4,0.3-0.4,0.3h0.4C84.9,56.1,85.4,56,85.8,55.8z M84.4,65.1l0.3,0.2
		c0,0.4-0.1,0.8-0.3,1.3V65.1z M86.7,69.2c0-0.3,0.1-0.7,0.2-1v1H86.7z M87.2,67l0.2-0.3c0.1,0,0.2,0.2,0.2,0.5s-0.1,0.5-0.2,0.5
		S87.2,67.4,87.2,67z M92.4,54.4c0-0.3-0.1-0.4-0.3-0.4c-0.1,0-0.3,0-0.4,0.1c-0.3,0.1-0.4,0.3-0.5,0.3S91,54.6,91,54.7s0,0.1,0,0.1
		c0,0.1,0.2,0.1,0.5,0.1C92.1,54.8,92.4,54.7,92.4,54.4z M93.4,50.4c0.3-0.4,0.6-0.9,0.8-1.5c0.3-0.6,0.3-1.1,0.3-1.4
		S94.5,47,94.2,47c-0.3,0.1-0.4,0.8-0.5,1.9c-0.1,0.6-0.1,0.8-0.2,0.8l-0.2-0.5c-0.1,0-0.2,0-0.2,0.1c-0.1,0.1-0.3,0.3-0.5,0.9
		c0,0.3,0.1,0.3,0.3,0.3L93.4,50.4z M98.2,55c0.5-0.1,0.9-0.2,1.3-0.3c0.4-0.1,0.6-0.2,0.6-0.3c-0.5,0-1,0.1-1.5,0.2
		c-1.3,0.3-1.9,0.4-1.9,0.5H97C97.2,55.2,97.7,55.1,98.2,55z M98.3,45.1c0-0.8-0.1-1.1-0.2-1.1v1.3L98.3,45.1z M100.1,53.6
		c0.8-0.2,1.2-0.3,1.2-0.4c-0.3-0.1-0.7-0.3-1.3-0.3c-0.6,0-1,0.1-1.3,0.3c-0.3,0.2-0.5,0.3-0.5,0.4c0,0.3,0.3,0.3,1.1,0.3
		L100.1,53.6z M103.3,54.2c-0.3-0.1-0.8-0.2-1.3-0.2c0.1,0.1,0.2,0.1,0.3,0.2s0.3,0.1,0.6,0.2h0.3L103.3,54.2z M104.7,54.1
		c0.1-0.1,0.2-0.2,0.2-0.3H104V54l0.3,0.2C104.4,54.2,104.5,54.2,104.7,54.1z"/>
	<path class="st0" d="M110.5,174l-0.7,0.1c-1.3,0-3.3-0.6-6-1.7c-1.3-0.6-2.3-1.2-2.7-1.7c-0.5-0.5-1.2-1.3-1.9-2.6
		c-1.2-1.9-1.8-3.7-1.8-5.1c0.1,0,0.2,0.1,0.3,0.2c0,0.1,0,0.3,0.1,0.3c0,0.2,0.1,0.3,0.3,0.4c0.1,0.2,0.2,0.3,0.3,0.3l0.2-0.2
		c0-0.3-0.2-0.6-0.5-1.2c0-0.1,0-0.1-0.1-0.1c-0.1-0.3-0.2-0.6-0.3-0.8s-0.2-0.5-0.2-0.8c0-0.4,0.1-0.9,0.3-1.3
		c0.2-0.4,0.3-0.8,0.4-1.3c0.3-0.8,0.6-1.3,0.9-1.6c0.3-0.3,1.3-0.9,2.8-1.8c0.3,0,0.3,0.2,0.3,0.4c-0.1,0.2-0.2,0.3-0.3,0.6
		c-0.2,0.3-0.3,0.5-0.6,0.8c-0.3,0-0.5,0.8-0.5,2.4c0,1.3,0.2,2.3,0.5,2.8l0.8,0.2c0.6,0,1,0.1,1.3,0.3h3.8c0.3,0,0.4-0.1,0.5-0.3
		l6.4-1.2c3.2-0.6,5-0.8,5.4-0.8l4-1.2c7.3-2.2,14.2-4.8,20.9-7.8c8.9-4,13.5-7.7,13.5-11.1c0-1.3-0.8-2.6-2.3-3.8
		c-1.1-1-2.8-2.4-5.4-4.2c-3.4-2.3-7.2-5.3-11.4-8.9c-4.2-3.5-7.9-7.5-11-12c-3.3-4.4-5-9.4-5.3-14.6c0-0.3,0-0.4-0.1-0.7
		c-0.1-0.2-0.2-0.3-0.2-0.4c-0.1-0.1-0.1-0.2-0.2-0.3c-0.6-0.5-0.8-1.4-0.8-2.8c0-1.9,0.3-4.1,1.1-6.7c0.7-2.6,1.2-4.3,1.6-5.4
		c1.4-3.4,3.2-6.6,5.2-9.6c2-2.9,3.5-5,4.4-6.2c0.4-0.3,1-0.8,1.9-1.8c3-3.5,7.8-7.8,14.2-12.9l2-1.7c0.2-0.4,1.2-1.2,2.7-2.2
		c3-2,5.7-3.6,7.9-4.7c2.4-2.3,6.2-3.4,11.3-3.4c5,0,8.9,0.9,11.5,2.8l0.4,0.4c0.6,0.4,1.3,1.2,2.3,2.1c0.8,1,1.6,2.3,2.3,3.9
		c0.8,1.7,1.1,3.8,1.1,6.3c0,6.4-3.1,14.4-9.2,23.8c-0.1,0.1-0.2,0.2-0.2,0.3c-0.6,0.9-1,1.3-1.3,1.4c-0.2,0.1-1,1-2.3,2.6l-0.4,0.4
		c-1.1,1.3-1.7,1.8-1.9,1.8c-0.3,0-0.4,0-0.5,0c-0.2,0.1-0.3,0.2-0.3,0.4s-0.2,0.6-0.5,0.9c-0.9,1-1.5,1.5-1.8,1.5
		c-0.3,0-0.5,0.1-0.6,0.3c-0.1,0.3-0.2,0.6-0.6,0.8c-1,0.8-1.7,1.3-2.1,1.3c-0.1,0-0.2,0-0.2-0.1c-0.1,0-0.2,0-0.3-0.1v-0.2
		c-0.1,0-0.2,0.1-0.3,0.2c-0.2,0.2-0.4,0.3-0.5,0.5c0.2,0.1,0.3,0.2,0.5,0.2l-1.2,0.8c0.1-0.1,0.3-0.3,0.3-0.4
		c0.1-0.1,0.1-0.3,0.2-0.4l-1.1,0.5c-2.5,1.8-4.5,3.1-5.9,3.8c-1.4,0.9-2.7,1.4-3.6,1.6l-1.9,0.2c-0.3,0-0.7-0.1-0.9-0.3
		c-0.3-0.1-0.4-0.3-0.4-0.4c0.1-0.3,0.2-0.5,0.3-0.8c0.1-0.3,0.2-0.3,0.7-0.3c0.4,0,1.3-0.6,2.8-1.7c2.8-1.8,4.1-3,4.1-3.4
		c0.1-0.1,0.3-0.1,0.4-0.2c0.1,0,0.3-0.2,0.8-0.5c0.4-0.3,0.7-0.5,0.9-0.5c0.2,0,0.4-0.3,0.7-1.1l-0.2-0.3c-0.3,0-0.3,0-0.3,0.1
		c-0.1,0.1-0.1,0.2-0.2,0.3l-0.5-0.3l-0.6,0.3v-0.3c0-0.3,0.3-0.6,0.9-0.8l1.5-1.9c-0.4,0.2-1,0.5-1.8,1c-2.2,1.6-3.5,2.6-3.9,3
		l-0.7,0.3c0-0.3,0.4-0.8,1.3-1.5c0.4-0.2,1-0.7,1.9-1.5c0.5-0.4,1-0.8,1.5-1.2c1.1-0.8,1.6-1.2,1.7-1.2c0.1,0,0.2-0.1,0.3-0.3
		c0.1-0.1,0.2-0.3,0.2-0.6l-0.2-0.3c-0.1,0-0.3,0.1-0.5,0.3c0,0.3-0.1,0.3-0.3,0.4c-0.3,0.1-0.4,0.2-0.7,0.3c-0.3,0.4-0.7,0.8-1.1,1
		c-0.7,0.2-2,1.1-3.9,2.8c-0.4,0.4-0.8,0.7-1,0.7c-0.8,0.9-1.2,1.3-1.3,1.3c-0.1,0.1-0.3,0.2-0.8,0.3l-0.2,0.1v0.1
		c-0.2,0.4-0.5,0.7-0.8,0.8s-0.5,0.2-0.5,0.4c0,0.1,0,0.3,0.1,0.3c0.1,0.1,0.2,0.2,0.2,0.2c0.6-0.4,1.3-0.8,1.9-1
		c0.1,0.3,0.2,0.4,0.2,0.7c0,0.3,0.1,0.5,0.3,0.7l-0.5-0.2c-0.4,0-0.8,0.1-1,0.3c-0.3,0.3-0.4,0.5-0.4,0.8l0.2,0.2h-0.2
		c0-0.1-0.2-0.2-0.5-0.2c-0.4,0-0.8,0.3-1,0.8h-0.5l0.3,0.8c0,0.6-0.1,0.8-0.3,0.8c-1.1,0-1.6-0.3-1.6-0.8c0-0.1-0.3-0.4-0.7-0.8
		c-0.8-0.6-1.2-1.2-1.2-1.8c0-0.9,0.9-1.6,2.8-2.2c1.3-1.3,2.8-2.4,4.3-3.3c1-0.6,1.7-0.9,1.9-1c0.3,0,0.4,0,0.6-0.1l-0.3-0.4
		c0-0.3,0.5-0.8,1.5-1.4c0.9-0.6,1.7-1.2,2.1-1.6l2.9-2.6c4.1-3.8,7.5-7.8,10.4-12c1.8-2.6,3.5-6.1,4.9-10.4
		c0.4-1.3,0.8-2.8,1.1-4.5v-0.7c0-0.3-0.2-0.4-0.6-0.4c-0.8,0-2.8,0.7-5.9,2.1l-3.1,1c-5.4,1.3-13.1,6.4-22.9,15.4l-7.8,7.4
		c-1.3,1.3-2,2.3-2.4,2.7c-0.4,0.5-0.7,0.8-0.8,0.8c-1.5,0.8-3.7,4.2-6.5,10.3c-1.1,2.3-1.8,3.8-2.1,4.8c-0.7,2.6-1,4.8-1,6.9
		c0,2.9,0.6,5.4,1.7,7.4c1.1,2,2.5,3.7,4.1,5c1.6,1.4,3.1,2.6,4.6,3.6c2,1.3,3.3,2.5,4,3.6c0.1,0.4,1.1,1.2,3,2.3
		c10.1,6.1,16.8,13.9,20.1,23.1c0,3.3-0.1,5.2-0.2,5.8c-6.2,7.2-18.1,13.5-35.8,18.8l-2.2,0.4c-0.6,0.2-1.1,0.3-1.5,0.4
		c-0.5,0.1-0.8,0.3-0.9,0.3c-0.6,0.1-1.1,0.2-1.5,0.2c-0.4,0.1-0.9,0.2-1.3,0.3c-0.5,0.1-1.8,0.4-4,1.2l-2.4,0.3
		c-0.3-0.1-0.6-0.2-0.8-0.2c-0.4,0-0.7,0.1-0.8,0.2s-0.4,0.2-0.7,0.2c-0.2,0-0.4-0.1-0.8-0.2c-1.3,0.3-2,0.3-2.3,0.3L110.5,174z
		 M102.4,164.7c0-0.1-0.2-0.2-0.5-0.2c-0.3,0-0.5,0.1-0.5,0.3c0,0.1,0.2,0.2,0.4,0.2C102.2,165,102.4,165,102.4,164.7z M113.4,165.8
		c2.9-0.5,4.6-0.8,4.8-1.1l2.6-0.7c3.9-1.4,6.7-2.3,8.4-2.8c2.8-0.8,4.4-1.5,5.1-2.3c0.1-0.1,0.3-0.3,0.9-0.6
		c1.1-0.5,1.7-0.9,1.7-1.3c0-0.2-0.3-0.4-0.8-0.7c-0.1,0-0.3,0.1-0.3,0.3c-0.1,0.3-0.4,0.6-0.9,1c-1,0.9-4.2,2.2-9.6,3.8l-8.7,2.3
		c-0.3,0.2-1.8,0.5-4.8,1.1c-3.3,0.6-5.7,0.9-7.2,0.9c-1.8,0.3-2.6,0.4-2.6,0.6c0.2,0.1,0.5,0.2,1,0.3c0.4,0.1,1.8,0.1,4.2,0.1
		C108.3,166.6,110.4,166.4,113.4,165.8z M110.9,170.7c0.2-0.1,0.8-0.2,1.4-0.2c0.2-0.1,0.5-0.3,1.1-0.3c1.3-0.3,2.5-0.3,3.6-0.3
		l0.3-0.1c0.3-0.2,0.6-0.3,0.9-0.3c1.7,0,6.5-1.5,14.6-4.4c8.1-2.9,12.1-4.6,12.1-5l1.3-0.7c1-0.4,1.5-0.8,1.5-0.9
		c0-0.1-0.2-0.2-0.5-0.2c-0.2,0.1-0.4,0.2-0.6,0.3c-0.3,0.1-0.7,0.3-1.4,0.6c-0.4,0.1-0.8,0.3-1,0.3c-0.2,0.2-0.4,0.3-0.4,0.6
		c-0.9-0.6-1.3-1.2-1.3-1.6c0-0.1,0.1-0.2,0.2-0.2s0.6-0.1,1.3-0.3c1.8-0.7,2.8-1,3.4-1c0.2,0,0.3,0,0.4,0c0.1,0.1,0.1,0.2,0.2,0.3
		c0.1,0.2,0.2,0.3,0.2,0.5c0.3,0,0.3-0.1,0.4-0.3c0-0.2,0.1-0.3,0.3-0.3c0.2,0,0.7,0,1.5,0c1.3,0,1.8-0.2,1.8-0.5l-0.2-0.2l-1,0.2
		c0-0.2,0.4-0.6,1.3-1.2c1.3-0.9,1.9-1.4,1.9-1.6l-0.3-0.2c-0.3,0.2-0.7,0.3-0.9,0.5c-0.3,0.3-0.8,0.3-1.3,0.3
		c-0.4,0-0.7-0.1-0.7-0.3c0-0.3,0.7-0.9,1.9-1.8c1-0.7,1.6-1.3,1.8-1.8c0.1-0.3,0.2-0.3,0.3-0.4c0.1-0.1,0.4-0.3,0.9-0.8
		c0.5-0.5,0.8-0.8,0.8-0.9c0-0.4,0.2-0.6,0.4-0.6c0.3,0,0.4-0.3,0.4-0.8c0-0.7-0.3-1-0.7-1c-0.1,0.1-0.2,0.1-0.3,0.1
		c-0.1,0.1-0.2,0.2-0.7,0.3c-0.4,0.2-0.8,0.3-1.3,0.6c-0.6,0.3-1.1,0.4-1.5,0.7c-0.5,0.3-0.8,0.4-0.9,0.5c-0.2,0.2-0.3,0.3-0.3,0.4
		h0.5c0.8,0,1.3,0.3,1.3,0.7c0,0.2-0.1,0.3-0.2,0.5c-0.3,0.3-0.4,0.3-0.6,0.3c-0.4,0-0.8,0.1-1.3,0.2c-1.1,0.3-1.8,0.6-2,0.8
		c-0.4,0-0.7-0.1-0.8-0.2c-0.5,0-2.3,0.7-5.6,2.1c-3.3,1.4-5,2.3-5.2,2.6c0,0.1,0.2,0.2,0.4,0.2c0.6,0,1.2-0.2,1.7-0.4
		c0.4-0.3,0.9-0.3,1.5-0.3l-1,0.8c-0.8,0.4-1.3,0.8-1.5,1.3c-0.5,0.5-1.1,0.9-1.8,1.3c-1.3,0.6-2,1.1-2.4,1.4
		c-0.4,0.3-0.9,0.6-1.5,0.8l-3.8,1.2c-2.7,0.9-5.4,1.8-8.3,2.7c-2.9,0.9-6.2,1.7-9.9,2.3c-1.5,0.3-2.3,0.3-2.5,0.3s-0.2,0.1-0.2,0.2
		l-1.3,0.2c-3.3,0.3-5,0.5-5,0.8c0.8,0.4,1.9,0.7,3.4,0.7c2.1,0,4.5-0.3,7.4-1.1c2.9-0.7,5.8-1.4,8.5-2.2c4.8-1.4,8-2.2,9.8-2.2
		c0.8,0,1.2,0.2,1.2,0.5c0,0.2-0.3,0.4-1.1,0.7c-0.8,0.3-1.6,0.5-2.5,0.8c-0.9,0.3-1.6,0.4-2.1,0.4l-0.5-0.2l0.5-0.3
		c0.3,0,0.5-0.2,0.5-0.5c-0.2,0-2.8,0.8-7.9,2.3l-2.3,0.8c-1,0.3-1.8,0.4-2.5,0.4c-0.3,0-0.4,0-0.5,0c-0.1,0.1-0.2,0.3-0.2,0.7
		c-0.1,0-0.2-0.1-0.3-0.2c-0.1-0.1-0.2-0.2-0.4-0.2c-0.3,0.1-0.7,0.2-1.1,0.3c-0.4,0.1-0.8,0.2-1.2,0.3c-2.7,0.8-4.4,1.3-5.3,1.3
		c-0.9,0-1.3,0.1-1.4,0.3c0.1,0.1,0.3,0.1,0.3,0.2s0.9,0.2,2.5,0.2C109.5,170.9,110.7,170.8,110.9,170.7z M104.3,164.5l-0.5-0.2
		l-0.3,0.2c0.1,0.1,0.3,0.2,0.5,0.2h0.3L104.3,164.5z M107.3,163.7l0.3,0.2l4.3-0.5l2.1-0.5c1.3-0.3,2-0.4,2.2-0.6
		c2.5-0.4,4-0.8,4.4-1.2c0.9-0.2,1.5-0.3,1.6-0.3c0.4-0.2,0.7-0.3,0.7-0.5l-0.2-0.2l-0.7,0.2c-2.1,0.6-3.8,1.1-5.2,1.3l-1.7,0.3
		c-0.3,0.2-1.8,0.5-4.9,1c-1.8,0.3-2.8,0.5-3.1,0.5l-1.1,0.1c-0.1,0-0.3,0.1-0.3,0.2c0,0.3,0.2,0.5,0.5,0.5
		C106.9,164.2,107.3,164,107.3,163.7z M123.5,91.2c0.4-1.8,0.8-2.8,1.2-3.2l0.1-0.3l-0.2,0.2l-0.2-0.2l0.3-1.4
		c0.2-1.2,0.8-2.7,1.8-4.5c1-1.8,2.2-3.7,3.5-5.6c1.3-1.9,2.4-3.5,3.4-4.8l1.5-2l2.2-2.3c3.7-4,7.7-7.7,11.9-10.9
		c4.3-3.3,7.9-5.8,10.9-7.9c2.9-1.9,4.4-3.1,4.4-3.4c-0.3-0.3-0.5-0.4-0.8-0.4c-1.4,0-3.9,1.3-7.5,3.8c-5.5,4-11.7,9.1-18.5,15.3
		l-1.5,1.3l-1.1,1.3c-0.8,0.8-1.2,1.3-1.2,1.3c-0.1,0.1-0.1,0.1-0.1,0.2c-0.3,0.3-0.4,0.3-0.6,0.3c-1.8,1.9-2.8,3.3-3.2,4.1
		c-0.1,0.1-0.1,0.2-0.2,0.3c-0.1,0.1-0.2,0.2-0.4,0.3c-0.4,0.5-1.1,1.7-2,3.5c-0.9,1.9-1.4,2.9-1.4,3.2c-0.2,0.1-0.4,0.7-0.8,1.8
		c-0.4,1.1-0.7,1.8-0.7,1.9c0,0.3-0.1,0.6-0.3,1.2c-0.6,1.8-0.9,3.3-0.9,4.5c-0.1,1.3-0.1,2.5-0.2,3.8
		C123.1,92.3,123.3,91.9,123.5,91.2z M123.8,94.4c0-0.3,0-0.5,0-0.8l-0.2-0.2v1.4C123.7,94.9,123.8,94.8,123.8,94.4z M126.9,84.7
		l1.1-2.8c0-0.3-0.1-0.3-0.3-0.3c-0.1,0-0.6,0.8-1.3,2.6c-0.8,1.8-1.2,3-1.2,3.7c0,0.3-0.1,0.4-0.2,0.5c-0.4,0.4-0.8,1.6-1.3,3.7
		C124.8,90.2,125.8,87.7,126.9,84.7z M124.9,98.4c0-0.8-0.1-1.2-0.2-1.3c-0.1,0-0.2,0.2-0.2,0.5c0,0.2,0,0.3,0.1,0.5
		c0,0.3,0,0.4,0.1,0.5c0.1,0.2,0.1,0.3,0.2,0.3V98.4z M126.1,159.4c0.2,0,0.4-0.1,0.6-0.2c0.1-0.1,0.2-0.2,0.2-0.3
		c-0.6,0-1.3,0.1-1.8,0.3c0,0.1,0.2,0.2,0.5,0.2C125.7,159.4,125.9,159.4,126.1,159.4z M126.6,88.4c0-0.3-0.1-0.5-0.3-0.7l-0.2,0.3
		c0,0.1,0,0.2,0.1,0.3c0.1,0.2,0.2,0.3,0.2,0.3L126.6,88.4z M128.4,85.5c1.9-3.6,3.8-6.5,5.5-8.9c0.8-1.3,2.3-3.1,4.7-5.4
		c3.5-3.6,7.8-7.8,12.9-12.4l1.1-1c0.2,0,1.1-0.7,2.8-2c1.6-1.3,2.4-2,2.4-2.3l-0.2-0.2c-0.1,0.1-0.2,0.1-0.3,0.1
		c-0.1,0.1-0.2,0.1-0.3,0.2c-0.2,0.1-0.2,0.2-0.2,0.3c-0.1,0.1-0.3,0.3-0.5,0.6c-0.8,0.8-1.3,1.2-1.6,1.2l-0.3-0.6
		c-0.2,0.5-1.6,1.8-4,3.8c-2.8,2.3-5.9,4.9-9.4,8c-3.5,3.2-5.8,5.8-6.9,7.9h-0.2c-0.2,0-1,1.3-2.5,3.7c-1.5,2.5-2.3,3.9-2.3,4.3
		l-1.8,4.4C127.5,87.2,127.8,86.6,128.4,85.5z M128.4,80.6c0.1-0.2,0.1-0.3,0.1-0.5c0-0.1-0.1-0.2-0.2-0.2l-0.2,0.9
		C128.2,80.9,128.3,80.8,128.4,80.6z M129.5,78.9c0.3-0.3,0.5-0.6,0.5-0.8c0-0.1-0.1-0.2-0.2-0.2c-0.3,0-0.5,0.2-0.6,0.5
		c-0.2,0.4-0.2,0.8-0.2,1L129.5,78.9z M130.4,77.4c0.1,0,0.3-0.3,0.8-1l-0.2-0.2c-0.2,0-0.3,0.1-0.4,0.3c-0.1,0.2-0.2,0.3-0.2,0.5
		c-0.1,0.3-0.2,0.4-0.2,0.5C130.2,77.5,130.3,77.5,130.4,77.4z M133.9,157l-0.2-0.3h-0.2c-0.2,0-0.3,0.1-0.3,0.3l0.3,0.2L133.9,157z
		 M134.7,72.1c0-0.2,0-0.5,0-1l-0.7,1.2l0.3,0.2C134.6,72.5,134.7,72.4,134.7,72.1z M151.7,148.8l-0.5,0.3c0,0.1,0.1,0.2,0.2,0.2
		C151.6,149.3,151.7,149.2,151.7,148.8z M152.3,89.9c0.3-0.1,0.4-0.3,0.7-0.4c0.3-0.1,0.3-0.3,0.4-0.4c0.1-0.1,0.2-0.3,0.3-0.3
		c0.1-0.1,0.2-0.2,0.4-0.3c0.2,0,0.5-0.2,0.9-0.4c0.4-0.3,0.8-0.6,1.2-0.8c0.4-0.3,0.6-0.5,0.7-0.6v-0.1c0-0.1-0.1-0.1-0.3-0.1
		c-0.3,0-0.5,0.1-0.8,0.3l-1.6,1c-0.2,0-0.3,0.1-0.3,0.3c-0.1,0.2-0.2,0.4-0.5,0.7c-0.8,0.8-1.3,1.1-1.6,1.1c-0.1,0-0.1,0-0.1,0
		c-0.1,0.1-0.1,0.2-0.1,0.3h0.2C151.8,90.1,152,90,152.3,89.9z M153.5,156.3c0-0.1-0.1-0.2-0.2-0.2s-0.3,0.1-0.3,0.3h0.4
		C153.5,156.5,153.5,156.4,153.5,156.3z M155.9,153.4c0.4-0.3,0.8-0.6,1-1v-0.3c-1.5,0.8-2.3,1.3-2.3,1.5c0,0.1,0.1,0.2,0.2,0.2
		C155.1,153.8,155.5,153.7,155.9,153.4z M158,151.9c0.2-0.3,0.3-0.4,0.3-0.6l-0.3,0.2h-1l0.7,0.8C157.6,152.3,157.8,152.2,158,151.9
		z M158.2,85.3c0-0.1,0-0.1,0-0.2c0,0-0.1,0-0.3,0c-0.6,0.3-0.8,0.6-0.8,1l0.2,0.3C157.6,86.5,157.9,86.1,158.2,85.3z M159.2,52.7
		c0.1-0.1,0.2-0.2,0.2-0.3l-0.3-0.2c-0.3,0-0.5,0.1-0.5,0.3l0.3,0.2C159,52.8,159.1,52.8,159.2,52.7z M164.4,149.3l0.3-0.7l-0.2-0.2
		c-0.2,0.1-0.3,0.3-0.5,0.3c-0.2,0.2-0.3,0.4-0.6,0.7c-0.2,0.3-0.4,0.7-0.7,0.9c-0.2,0.3-0.3,0.5-0.3,0.6L164.4,149.3z M164.3,146.1
		c0.1-0.3,0.1-0.4,0.1-0.7h-0.2c-0.1,0-0.2,0.3-0.2,1C164.2,146.4,164.2,146.3,164.3,146.1z M165.9,86.2c0-0.3,0.1-0.3,0.3-0.3
		c0.2,0,0.6-0.3,1.3-0.8l0.6-0.4c0-0.3-0.4-0.4-1.3-0.7c-0.1,0-0.1,0-0.1,0.1c-0.1,0.1-0.1,0.3-0.1,0.3c-0.1,0.2-0.1,0.3-0.2,0.4
		v-0.2c0-0.3-0.1-0.3-0.3-0.3c-0.3,0-0.3,0.1-0.3,0.3s-0.1,0.5-0.2,0.7l-0.2-0.2c-0.1,0-0.2,0-0.3,0c-0.2,0.1-0.3,0.3-0.5,0.7
		c0,0.1,0.2,0.2,0.5,0.2c0.1,0,0.2,0.1,0.2,0.2l-0.2,0.5h0.2C165.6,86.7,165.8,86.5,165.9,86.2z M166.8,81.1l-0.3-0.2l-0.3,0.2
		l0.2,0.3C166.6,81.4,166.8,81.3,166.8,81.1z M166.3,148.2C166.2,148.2,166.2,148.2,166.3,148.2c-0.2,0.2-0.2,0.3-0.2,0.7
		L166.3,148.2z M168.5,81.9l-0.3-0.2H168c-0.1,0-0.2,0.1-0.5,0.3c-0.1,0.1-0.1,0.1-0.2,0.1c-0.1,0.1-0.2,0.2-0.2,0.3L168.5,81.9z
		 M169.5,83.4l-0.2-0.3c-0.2,0.2-0.5,0.3-0.8,0.4c-0.3,0.2-0.5,0.3-0.5,0.5h0.7C169,84,169.3,83.8,169.5,83.4z M170.3,88.1l0.4-0.3
		c-0.4,0-0.7,0.2-0.8,0.5L170.3,88.1z"/>
</g>
<g>
	<path class="st1" d="M150.6,48.6l-0.4,0c-0.3,0-0.7,0-1.1-0.2c-0.5-0.2-1.1-0.4-2.1-0.8c-0.6-0.4-1.2-0.8-1.6-1.2
		c-0.5-0.6-0.7-1-0.7-1.1c-0.1-0.1-0.1-0.2-0.1-0.2s-0.1,0-0.1-0.2l0.1-0.2l0.2,0.2l0-0.1c-0.1-0.1-0.1-0.2-0.2-0.4l-0.1,0.2
		c-0.1,0-0.2,0-0.2-0.2c-0.1-0.1-0.2-0.2-0.3-0.4c-0.1-0.1-0.1-0.3-0.2-0.4l0.1-0.3l-0.2-1.4c-0.1-0.5-0.2-1.1-0.4-1.7
		c-0.1-0.6-0.2-1.2-0.4-1.7s-0.3-1.3-0.3-2.1c-0.1-0.5-0.1-0.7-0.2-0.8c0-0.2,0-0.4,0.1-0.5l-0.1,0l-0.2,0.1l0-0.1l0.3-0.4l-0.2-0.9
		c-0.1-0.7-0.2-1.3-0.3-1.7c-0.4-3.4-0.7-5.3-0.8-5.7c-0.2-1.1-0.4-2-0.8-2.7c-0.2-0.5-0.6-1.3-1.1-2.6l-1.2-2.6
		c0-0.1-0.1-0.2-0.1-0.2c-0.1,0-0.2-0.2-0.4-0.5c-0.3-0.3-0.4-0.5-0.4-0.6c0-0.1-0.1-0.1-0.2-0.1c-0.1,0-0.2-0.1-0.2-0.2l-0.5-0.9
		l0.1-0.2c0.2-0.1,0.3-0.2,0.5-0.3c0.2-0.1,0.4-0.1,0.6-0.2c0.3,0,0.4,0,0.5-0.1c0.1,0,0.3-0.1,0.9-0.3c0.3,0,0.6,0,0.8,0.1l0.8,0.1
		c0.2,0,0.6,0.1,1.2,0.5s0.9,0.5,1,0.6c0,0.1,0,0.2,0.1,0.3l0.6,0.8c0.3,0.2,0.7,0.7,1.3,1.6c1.7,2.3,2.8,5.8,3.4,10.4l0.4,4.1
		c0.1,0.6,0.2,2.1,0.3,4.4c0.1,1.8,0.2,2.9,0.2,3.4c0.2,1.5,0.6,2.8,1.4,4c0.3,0.6,0.5,0.9,0.8,0.9c0.1,0,0.1-0.1,0.2-0.1
		c0.1,0,0.1-0.1,0.1-0.3c0-0.1,0.1-0.2,0.2-0.3c0.2,0,0.7-0.5,1.4-1.4c0.7-0.9,1.1-1.4,1-1.4c0-0.2,1.2-2.2,3.8-6.1s4-5.8,4.3-5.8
		c0.1,0,0.2,0,0.3-0.1c0.3-0.2,0.5-0.4,0.4-0.5c0-0.1,0-0.3,0.2-0.4c0-0.1,0.1-0.2,0.1-0.4l-0.3,0.2c0-0.1,0-0.2,0.2-0.3l0.2,0
		l0.1,0c0.2,0,0.3-0.2,0.4-0.5c0-0.1,0.1-0.2,0.2-0.3c0.2-0.3,0.4-0.5,0.6-0.6c0.1-0.1,0.2-0.3,0.4-0.6c0-0.2,0.1-0.3,0.2-0.3
		c0.1,0,0.1,0,0.1-0.1c0-0.1,0-0.1,0.1-0.2c0.2,0,0.5-0.5,1-1.4c0.3-0.1,0.4-0.3,0.3-0.4c0.1,0,0.1-0.1,0.2-0.1
		c0.1,0,0.1-0.1,0.2-0.1c0.1,0,0.2-0.1,0.1-0.3c0-0.1,0-0.1,0.1-0.1c0.1,0,0.1,0,0.1-0.1c0,0,0-0.1,0.1-0.1c0.2-0.1,0.4-0.3,0.5-0.6
		c0.1-0.3,0.2-0.4,0.4-0.4c0.1-0.1,0.2-0.3,0.3-0.4c0.1-0.2,0.2-0.3,0.4-0.3c0.2-0.1,0.2-0.2,0.2-0.3c0-0.1,0-0.2,0.1-0.2l0.4-0.5
		l-0.5,0.2c0.1-0.2,0.2-0.3,0.3-0.4c0.1,0,0.2,0,0.3-0.1c0-0.1,0-0.3,0.2-0.5c0.3-0.5,0.7-0.9,1.1-1.2l0.2-0.2L171,20
		c-0.3,0.2-0.4,0.4-0.5,0.5l-0.1,0.2c0.1,0,0.4-0.2,0.8-0.7s0.6-0.7,0.6-0.8c0-0.1,0-0.2,0.2-0.4c0.1-0.2,0.7-0.8,1.7-1.9l2.4-2.4
		c0,0.1,0,0.1-0.1,0.2s-0.1,0.2-0.1,0.3l0.1,0c0.1,0,0.1,0,0.1-0.1c0-0.3,0.3-0.8,0.7-1.3c0.4-0.3,0.7-0.6,1.1-0.9
		c0.2-0.2,0.3-0.3,0.3-0.3c0,0,0-0.1,0.2-0.3c0.3-0.4,0.5-0.6,0.7-0.6c0.2,0,0.2,0,0.2-0.1l0,0c0-0.1,0.1-0.3,0.5-0.6
		c0.2-0.1,0.3-0.2,0.4-0.2c0-0.1,0-0.2,0.1-0.3c0.1-0.3,0.3-0.4,0.5-0.5c0.8-0.6,1.5-1.3,2.3-1.9l6.1-4.4c0.5-0.3,0.9-0.6,1.5-1
		c0.6-0.4,1-0.6,1.4-0.8c0.4-0.2,0.8-0.3,1.2-0.4l0.6,0l0-0.1c0.3,0,0.6,0,0.7,0c0.1,0,0.2,0.1,0.2,0.2l0,0.2l0.3-0.4l0.5,0.1
		l0.2,0.2l-0.1,0.1c-0.1,0-0.2,0-0.2,0.1c-0.1,0.1-0.2,0.1-0.3,0.1c-0.1,0-0.1,0.1-0.2,0.1c0,0,0.1,0,0.3,0l0.2-0.1l0,0.4
		c-0.1,0-0.1,0-0.1,0c-0.2-0.1-0.4-0.1-0.7-0.1c-0.1,0-0.1,0-0.2,0s-0.1,0-0.1,0.1c0.2,0,0.3,0,0.4,0c0.1,0,0.2,0,0.4,0
		c0.2,0,0.3-0.1,0.4-0.1c0.1,0,0.1-0.1,0.1-0.2c0,0,0.1-0.1,0.3-0.2c0.2-0.1,0.4-0.2,0.6-0.2c0.2-0.1,0.4-0.1,0.5-0.1
		c0.1,0,0.1,0.1,0.1,0.1c0,0,0,0.1,0.1,0.1c0.1,0.1,0.1,0.1,0.3,0.1c0.2,0.1,0.2,0.2,0.2,0.2c0,0.1,0.1,0.2,0.2,0.2
		c0.1,0,0.2,0,0.2,0.1c0,0.1-0.3,0.4-0.9,0.8c-0.6,0.3-1,0.6-1.1,0.7c-0.1,0.2-0.2,0.4-0.3,0.6c0,0.2-0.3,0.5-0.8,0.8
		c-0.5,0.3-0.9,0.5-1.1,0.5c-0.3,0.1-0.5,0.1-0.8,0.1c-0.3,0.1-0.5,0.1-0.8,0.2c-0.2,0.1-0.3,0.1-0.3,0.1l-0.6,0.5
		c-1.3,0.9-2.5,1.7-3.7,2.6c-0.4,0.3-0.8,0.7-1.2,1.1l-0.9,0.7c-0.2,0.1-0.3,0.2-0.3,0.3l0,0.1c-0.1,0.2-0.3,0.3-0.5,0.4
		c-0.1,0.1-0.2,0.3-0.3,0.4c-0.2,0.1-0.2,0.2-0.2,0.3c0,0.1,0,0.1-0.1,0.2c-0.1,0-0.3,0.1-0.5,0.3c-0.5,0.4-0.8,0.6-0.7,0.7
		c0,0.1-0.1,0.2-0.4,0.3c-0.3,0.1-0.4,0.2-0.4,0.2c0,0.1,0,0.2-0.1,0.3c-0.3,0.3-0.5,0.5-0.7,0.5c0-0.1,0.6-0.7,1.8-1.9l0.8-0.9
		c-0.1,0-0.2,0-0.2,0.1s-0.1,0.2-0.2,0.3c-0.4,0.3-0.7,0.4-0.7,0.4c-0.1,0-0.2,0.1-0.4,0.3c0,0.2-0.1,0.4-0.4,0.7
		c-0.5,0.3-0.7,0.5-0.8,0.6s-0.2,0.2-0.3,0.2c-0.2,0.1-0.3,0.1-0.3,0.2c-0.1,0-0.2,0-0.2,0.1c0,0.2-0.1,0.3-0.3,0.5l-0.2,0.1
		c-0.2,0.1-0.2,0.2-0.2,0.3c0,0.1,0,0.2-0.2,0.2c-0.2,0.1-0.4,0.4-0.9,1c-0.5,0.6-0.7,0.9-0.7,1l0.5-0.4c0,0.1-0.1,0.3-0.4,0.5
		c-0.3,0.4-0.5,0.5-0.6,0.5l0.1-0.2c-0.1,0-0.3,0.1-0.5,0.4c-0.6,0.5-1.1,1-1.7,1.7c-0.4,0.2-0.6,0.4-0.6,0.4
		c-0.1,0-0.2,0.1-0.1,0.2c0,0.1-0.1,0.3-0.4,0.7c-0.8,1-1.4,1.6-1.7,1.8c-0.1,0-0.2,0.1-0.3,0.2c-0.2,0.1-0.2,0.3-0.3,0.4
		c-0.2,0.3-0.5,0.6-0.7,0.7c0,0.1-0.1,0.1-0.1,0.2c-0.1,0.1-0.1,0.2-0.1,0.2c0,0.1,0,0.1,0,0.2c-0.1,0.2-0.2,0.3-0.4,0.4
		c0,0.1-0.1,0.3-0.2,0.4c-0.1,0.2-0.3,0.3-0.4,0.5c-0.3,0.1-0.5,0.3-0.6,0.5c0,0.1,0,0.1-0.1,0.1l-0.3,0.3c-0.9,1.1-1.4,1.8-1.4,2
		c0,0.1,0,0.2-0.2,0.3c-0.2,0-0.4,0.2-0.6,0.7c-0.3,0.4-0.4,0.6-0.5,0.7c0,0.1-0.1,0.2-0.1,0.3c-0.2,0-0.3,0.1-0.4,0.1
		c-0.1,0.1-0.1,0.2-0.1,0.4c0,0.1,0,0.1,0,0.1c-0.1,0-0.1,0-0.2,0c-0.1,0-0.5,0.7-1.4,2c-0.9,1.4-1.4,2.1-1.7,2.3
		c-0.1,0.2-0.1,0.3-0.1,0.4c0,0.1-0.1,0.2-0.1,0.2c-0.1,0.1-0.4,0.6-1,1.6c-2.8,4.8-5,7.8-6.5,9l-0.6,0.4c0,0.1-0.2,0.3-0.6,0.3
		C153.4,48.9,152.2,48.8,150.6,48.6z M143.3,41.5c0-0.1,0-0.2,0.1-0.3c0.1,0,0.1,0,0.1,0.2l-0.1,0.1L143.3,41.5z M143,31.5
		c0-0.1,0-0.1-0.1-0.1l-0.1,0l-0.2,0.1c0,0,0,0.1,0.1,0.1c0.1,0.1,0.1,0.1,0.2,0.1c0.1,0,0.1,0.1,0.1,0L143,31.5z M143.3,32.1
		c0.1,0,0.1-0.1,0.1-0.2l-0.6,0.1c0.1,0.1,0.1,0.1,0.1,0.2c0.1,0.1,0.1,0.1,0.1,0.1L143.3,32.1z M144.3,37.7l-0.2-0.4l0-1.1
		c0-0.3-0.1-0.4-0.3-0.4c-0.1,0-0.2,0.1-0.3,0.1l0.1,0.1l0,0.2l-0.2,0l-0.1,0.1l0.3,0.6c0,0.1,0,0.2-0.1,0.2
		c-0.1,0.1-0.1,0.2-0.2,0.3c0,0.1,0.1,0.2,0.3,0.1c0.2,0,0.3,0,0.3,0c0.1,0,0.1,0.1,0.1,0.2c0,0.1,0.1,0.2,0.1,0.2
		S144.3,37.8,144.3,37.7z M143,32.6l0-0.1C143,32.5,143,32.5,143,32.6c-0.1,0-0.1,0.1-0.1,0.1L143,32.6z M143.9,34.9
		c-0.1-0.5-0.2-0.9-0.3-1.1l-0.2,0.1l0-0.1l-0.2,0c0.1,0.1,0.1,0.1,0.1,0.1c0,0,0.1,0.1,0.3,0.1l-0.2,0l-0.1,0.1l0.3,0.3
		c0,0.1,0,0.1-0.1,0.2c-0.1,0-0.1,0.1-0.2,0.1c-0.1,0,0,0.1,0,0.2l0.4-0.2c0.1,0,0.1,0,0.1,0c0,0,0,0,0,0.1l-0.3,0.4
		c0,0.1,0.1,0.1,0.2,0.1c0.1,0.1,0.1,0.1,0.2,0.1C143.9,35.5,143.9,35.3,143.9,34.9z M145.3,42.9c-0.4-2-0.7-3.5-0.8-4.4
		c0-0.4-0.1-0.6-0.2-0.6c-0.2,0.1-0.3,0.2-0.4,0.3c-0.2,0.1-0.2,0.2-0.2,0.3c0,0.3,0,0.6,0,0.9l0.2,0.2l0,0.6c0,0.1,0,0.1,0.1,0.2
		c0.1,0,0.1,0.1,0.1,0.3c0,0.1,0,0.2,0.1,0.2c0,0,0.1,0,0.2,0l0.3,0.1c0,0,0,0.1-0.2,0.1c-0.2,0-0.2,0.1-0.2,0.3l-0.1,0.2l0.1,0
		l0.4-0.2c0,0.1,0,0.2-0.2,0.3c-0.2,0.1-0.2,0.2-0.2,0.4c0,0.2,0.1,0.3,0.2,0.3c0.1,0.1,0.2,0.1,0.2,0.1s0.1,0,0.2,0
		c0.1,0.1,0.1,0.1,0.1,0.2l-0.1,0.1l-0.2,0c-0.2,0-0.2,0.1-0.2,0.3c0,0.1,0.1,0.2,0.2,0.3c0.1,0.1,0.2,0.2,0.4,0.2
		c0.1,0,0.2,0,0.3,0.1L145.3,42.9z M144.2,43.4c0-0.1-0.1-0.1-0.1-0.1l0,0.2L144.2,43.4L144.2,43.4z M142.9,30.8
		c-0.1,0-0.1,0.1-0.1,0.3l0.1,0L142.9,30.8z M143.6,33.1l0.1-0.4l-0.1-0.2c-0.2,0-0.2,0.1-0.2,0.3c0,0.1,0,0.1,0,0.1
		c-0.1,0-0.1,0.1-0.3,0.1c0.1,0,0.1,0,0.2,0s0.1,0.1,0.1,0.2l-0.1,0.1c0.1,0,0.1,0,0.2,0c0.1,0,0.1,0,0.1,0.1c0,0,0,0.1,0,0.1
		C143.6,33.6,143.7,33.4,143.6,33.1z M144.5,44.2l-0.1-0.3l-0.1,0l0,0.3l0.2,0.2L144.5,44.2z M144,38.7l0.1-0.2l0,0.2L144,38.7z
		 M142.7,22.7l0-0.1C142.6,22.5,142.6,22.6,142.7,22.7c-0.1,0-0.1,0-0.1,0.1L142.7,22.7z M147.2,45.1l-0.5-2.8
		c-0.3-1.5-0.5-2.2-0.6-2.3l-0.4-3.7c-0.3-2.4-0.5-3.6-0.5-3.7L145,30c-0.1-0.1-0.2-0.4-0.2-0.9c0-0.2-0.1-0.3-0.1-0.3l-0.1-0.9
		l0.1-0.5c0.1,0,0.1,0.2,0.3,0.6c0.1,0.3,0.4,1.7,0.7,4.1l0.7,6.1c0.2,2.2,0.4,3.3,0.6,3.4c0.1,0,0-1.4-0.4-4.2l-0.5-4.2
		c-0.2-1.7-0.4-3.1-0.6-4.3c-0.1-0.1-0.2-0.5-0.3-1.2s-0.3-1.4-0.5-2.2c-0.1,0-0.4-0.8-0.9-2.3c0.1,0.8,0.3,1.6,0.6,2.6l0.1,0.6
		c0.1,0.1,0.2,0.4,0.2,0.6l-0.1,0c-0.2,0-0.5-0.8-0.9-2.3c-0.1,0-0.1-0.1-0.1-0.1c-0.1,0-0.1-0.1-0.1-0.1c-0.1-0.3-0.3-0.6-0.5-0.8
		c-0.1-0.1-0.2-0.1-0.3-0.1l0.1,0l0.7,1.6l0.4,1.2l-0.1,0.3l-0.2-0.1l-0.1,0.2l0.2,0.2c0.1,0,0.1,0,0.1,0.1l0.1,0.5
		c0,0.3,0.1,0.5,0.2,0.6c0.1,0.1,0.2,0.2,0.3,0.3c0.1,0.1,0.1,0.1,0.1,0.1c-0.2,0-0.2,0.2-0.2,0.5l1.2,9.2c0.6,4.1,1,6.3,1.5,6.6
		l0.2,0.2c0.1,0.2,0.1,0.3,0.1,0.3c0,0,0.1,0.1,0.2,0L147.2,45.1z M145.7,44c-0.2-0.4-0.4-0.7-0.6-0.6c-0.1,0-0.1,0-0.1,0.1
		c0,0.1-0.1,0.2-0.1,0.3c0,0,0,0.1,0.1,0.2c0.1,0.1,0.1,0.1,0.2,0.1l0.1-0.1C145.5,44,145.6,44,145.7,44L145.7,44z M143.2,21.8
		l-0.1,0.3l0.1,0L143.2,21.8z M145.8,44.5l-0.1,0.1l0.1,0.1l-0.1,0l0.1,0L145.8,44.5z M147.1,42c0-0.1-0.1-0.1-0.2-0.1l-0.1,0.1
		l0.1,0.1l0.1,0C147.1,42.1,147.1,42,147.1,42z M147.4,45.4l-0.1,0.1l0,0.1l0.1,0.3l0.1,0L147.4,45.4z M147.6,43.7
		c-0.3-0.9-0.4-1.3-0.5-1.3c0.1,0.5,0.2,0.9,0.3,1.4c0.3,1,0.5,1.5,0.7,1.5C148,45.1,147.8,44.6,147.6,43.7z M148.1,46.4
		c-0.1,0-0.1,0-0.1-0.1c-0.1-0.1-0.2-0.1-0.3-0.2l0,0.2c0,0.1,0.1,0.2,0.3,0.1L148.1,46.4C148.1,46.5,148.1,46.4,148.1,46.4z
		 M148.3,45.9c0,0,0-0.1,0-0.1c-0.1,0-0.1,0.1-0.1,0.2C148.2,46,148.3,46,148.3,45.9z M156.5,42.4l0-0.1l-0.1,0
		c-0.2,0-0.2,0.1-0.2,0.1c0,0.1,0.1,0.1,0.2,0.1L156.5,42.4z M159,40.5l0.6-0.7l-0.1,0.2l-0.5,0.8l0,0.1c0.3,0,0.5-0.3,0.6-0.7
		l0.4-0.5c0.2,0,0.3-0.1,0.3-0.2c0.1,0,0-0.1,0.1-0.1c0-0.1,0-0.2,0.2-0.3c0.1-0.2,0.2-0.3,0.2-0.4c0-0.1,0-0.2,0.1-0.2
		c0.1,0,0.1,0,0.2,0c0.1,0,0.1,0,0.2-0.1c0.1,0,0-0.1,0-0.1c0,0,0-0.2,0.2-0.3c0.3-0.5,0.6-0.8,0.8-0.9c0.2,0,0.3-0.1,0.4-0.4
		c0.1-0.2,0.2-0.4,0.3-0.6c0.2-0.1,0.3-0.2,0.4-0.2c0.1,0,0-0.1,0.1-0.1c0,0,0-0.1,0.1-0.3c0.7-1.1,1.1-1.7,1-1.9l0-0.1l0.1,0
		c0.1,0,0.3-0.1,0.5-0.4c1.2-1.3,1.8-2.3,2-3.1l1-1.1c0-0.1,0.1-0.2,0.3-0.4c0.4-0.4,0.6-0.7,0.6-0.9l0.1-0.2c0.1,0,0.1-0.1,0.2-0.2
		c0.2-0.2,0.3-0.4,0.4-0.6c0-0.2,0.1-0.3,0.3-0.3c0.2,0,0.3-0.1,0.3-0.1c0,0,0-0.1,0-0.2c0-0.1,0-0.2,0-0.2c0,0,0.1,0,0.2,0
		c0.3,0,0.5-0.3,0.6-0.7c0.2-0.2,0.4-0.3,0.7-0.5c0.2-0.2,0.4-0.4,0.6-0.6s0.3-0.5,0.3-0.6c0,0,0-0.1,0.1-0.2
		c0.2-0.3,0.4-0.5,0.5-0.5c0.1,0,0.3-0.2,0.5-0.5c0.2-0.3,0.5-0.7,1-1.1c0-0.1,0.1-0.2,0.1-0.2c0-0.1,0-0.1,0-0.2
		c0.1,0,0.2-0.1,0.4-0.3l0.3,0.1l0-0.1c0.2,0,0.2-0.1,0.2-0.3l-0.3-0.5l0.2,0c0.1,0,0.2,0,0.3-0.1c0.2,0,0.2-0.1,0.2-0.3
		c0-0.1,0-0.2,0.2-0.3c0.3-0.2,0.4-0.3,0.4-0.4c0-0.1,0.1-0.2,0.3-0.3c0.2-0.1,0.4-0.3,0.6-0.4c0,0,0-0.1,0.2-0.1
		c0.1,0,0.2-0.1,0.3-0.1c0.2-0.1,0.3-0.2,0.3-0.2c0-0.1,0-0.3,0.2-0.3c0.2,0,0.3-0.2,0.3-0.4c0-0.2,0.1-0.4,0.4-0.5l0.1,0l0,0.2
		c0.3-0.1,0.5-0.3,0.8-0.4c0-0.1,0.1-0.2,0.1-0.3c0,0-0.1,0-0.1,0c-0.1,0.1-0.2,0.2-0.3,0.3c-0.2,0.1-0.3,0.2-0.4,0.2
		c0.1,0,0.1-0.1,0.2-0.1c0-0.1,0.2-0.3,0.7-0.7l0.1,0l0,0.1l0.1,0.1c0.1,0,0.2-0.1,0.3-0.2c0.1,0,0.1-0.1,0.2-0.2
		c0.1-0.1,0.2-0.2,0.2-0.3c0-0.1,0-0.1,0-0.2l-0.2-0.2c0.2-0.2,0.7-0.6,1.3-1.2c0.4-0.4,0.6-0.6,0.6-0.6c0.1,0,0.1,0,0.2-0.1
		c0-0.1,0.1-0.2,0.2-0.3c0.6-0.7,1.1-1,1.5-1.1l0-0.1c0-0.1,0.1-0.3,0.4-0.5c0.3-0.2,0.5-0.4,0.4-0.5c0-0.1,0.1-0.1,0.3-0.1
		c0.1,0,0.1,0,0.1,0l0,0.1l-0.1,0.1c0.2,0,0.3-0.1,0.3-0.2c0-0.3,0.8-1,2.4-2.1c0.8-0.5,1.2-0.9,1.4-1c0.1-0.2,0.4-0.3,0.8-0.5
		c0.6-0.4,0.8-0.7,0.8-0.9c0-0.1-0.1-0.3-0.2-0.4c-0.2,0-0.4,0.1-0.7,0.4c-0.7,0.5-1.1,0.7-1.3,0.9c-0.2,0.1-0.5,0.4-1,0.7
		c-0.3,0.2-0.4,0.3-0.6,0.4c-0.2,0.1-0.5,0.4-1.1,0.7l-0.8,0.7c-0.2,0.1-0.3,0.3-0.5,0.4c-0.4,0.3-0.7,0.5-0.8,0.5
		c0-0.1,0-0.2,0.2-0.3c0.1-0.2,0.3-0.3,0.5-0.5c0.1-0.2,0.3-0.3,0.6-0.4c0.1,0,0.2-0.1,0.3-0.2c0-0.1,0.1-0.2,0.1-0.3
		c0-0.1,0-0.2,0-0.3c-0.3,0.2-0.5,0.4-0.6,0.5c-0.2,0.1-0.2,0.2-0.3,0.3c0,0.1-0.2,0.1-0.4,0.2c-0.2,0-0.3,0.1-0.3,0.2l-0.1,0.1
		c-0.1,0-0.2,0.1-0.4,0.2c-0.2,0.1-0.3,0.4-0.4,0.8c0.1,0,0.2,0,0.3,0c0.1,0,0.1,0,0.2,0c0,0,0,0.1,0,0.2c-0.2,0.3-0.6,0.6-1,1l-1,1
		c-0.2,0.2-0.4,0.4-0.5,0.5c-0.2,0.1-0.4,0.2-0.4,0.2c-0.1,0-0.1,0-0.1-0.1c0,0,0-0.1,0-0.1l0.2,0c0-0.1,0-0.2,0.1-0.2
		c0-0.1,0.1-0.2,0.2-0.3c0-0.2,0.1-0.5,0.2-0.9c-0.8,0.7-1.2,1-1.3,1.1c-0.2,0.3-0.5,0.6-0.8,0.9c-0.4,0.3-0.8,0.5-1.1,0.9l-0.3,0.3
		l0-0.2l-0.1-0.1c-0.1,0-0.2,0.1-0.3,0.1c-0.1,0.1-0.1,0.2-0.1,0.3c0,0,0,0,0,0.1c-0.1,0-0.2,0.1-0.3,0.1s-0.2,0-0.2,0
		c-0.1,0,0,0.1,0,0.1l0.6-0.1c0.1,0,0.1,0,0.1,0.1c-0.2,0.4-0.4,0.5-0.6,0.6c-0.2,0-0.2,0.1-0.2,0.2c0,0.1-0.2,0.2-0.7,0.2
		c-0.1,0-0.1,0-0.1,0.1l0.2,0.2l-0.1,0c-0.2,0-0.3,0.1-0.5,0.2c-0.3,0.1-0.5,0.3-0.6,0.5l0,0.1c0,0,0.1,0.1,0.1,0l0.3-0.2l-0.2,0.4
		c-0.5,0.7-0.8,1-0.9,1c-0.1,0-0.2,0-0.2,0c-0.1,0,0,0.1,0,0.1c0,0.1,0,0.2-0.1,0.3c-0.1,0.1-0.2,0.2-0.4,0.3
		c-0.2,0.1-0.3,0.2-0.5,0.2c-0.2,0-0.3,0.1-0.5,0.1l-0.1,0.2l0.7-0.1c0,0.1,0,0.1-0.1,0.2c-0.2,0.3-0.4,0.5-0.7,0.6
		c-0.3,0.1-0.4,0.2-0.5,0.3c-0.3,0-0.5,0.1-0.5,0.2l0,0.1c0,0.1,0,0.2-0.2,0.3c-0.2,0-0.2,0.1-0.2,0.3c0,0.1,0,0.3,0,0.3
		c-0.1,0-0.1,0.1-0.2,0.1c-0.1,0-0.1,0-0.1,0c-0.1,0,0,0.1,0,0.3c0,0.2-0.2,0.3-0.6,0.4c-0.2,0-0.4,0.1-0.6,0.2
		c-0.2,0.1-0.2,0.2-0.2,0.3l0.2,0.1c0,0.1-0.1,0.2-0.3,0.3c-0.1,0-0.2,0.1-0.2,0.1c-0.1,0-0.1,0.2-0.2,0.5c-0.2,0.1-0.3,0.2-0.4,0.2
		l-0.1-0.1l0-0.1l-0.1,0l-0.5,0.3l-0.1,0.3l0.7-0.3c0.1,0,0.1,0,0.1,0l0,0.1c-0.1,0.4-0.4,0.6-0.8,0.6l0.1-0.3l-0.1,0
		c-0.1,0-0.2,0-0.2,0.1c-0.1,0,0,0.1,0,0.2l0.1,0.2c-0.1,0-0.2,0-0.2,0.1c-0.1,0-0.2,0-0.2,0.1c-0.1,0-0.1,0.1-0.1,0.2l0.3,0
		c0,0.1-0.1,0.2-0.1,0.3c0,0.1-0.1,0.2-0.1,0.2l-0.1,0l-0.2,0l0.2-0.3c-0.1,0-0.2,0-0.3,0.2c-0.3,0.1-0.4,0.2-0.4,0.3
		c0,0.1,0,0.2-0.2,0.3c0,0.1,0,0.2-0.1,0.2c0,0.1-0.1,0.2-0.2,0.2c0,0.1-0.1,0.2-0.2,0.2c-0.2,0.1-0.3,0.3-0.3,0.4
		c0,0.1,0.1,0.1,0.2,0.2l-0.7,0.8l0.2-0.4c-0.1,0-0.1,0.1-0.2,0.1c-0.1,0-0.1,0.1-0.2,0.1c-0.1,0-0.2,0.1-0.4,0.1l0.2,0.4
		c-0.1,0-0.2,0.1-0.3,0.2c-0.1,0.2-0.2,0.4-0.4,0.5c-0.1,0.2-0.2,0.3-0.2,0.4c0,0.1-0.1,0.2-0.2,0.3c-0.1,0.1-0.2,0.3-0.3,0.4
		c-0.1,0.2-0.2,0.3-0.3,0.5c0.1,0,0.2-0.1,0.3-0.1c0.1,0,0.1-0.1,0.2-0.1l0,0.1c0,0.1-0.1,0.2-0.3,0.2c-0.2,0-0.3,0.1-0.3,0.1
		l0.1,0.1c0.2,0,0.2,0,0.2,0.1c0,0-0.1,0.1-0.3,0.1s-0.3,0.1-0.3,0.1c0,0.3-0.1,0.5-0.2,0.5l-0.1,0c-0.2,0-0.2,0.1-0.2,0.1
		c-0.1,0.2-0.2,0.4-0.2,0.6c0,0.1,0.1,0.1,0.1,0.1c0.1,0,0.1,0,0.2,0l-0.4,0.3l-0.3-0.1c-0.1,0-0.2,0.1-0.4,0.3s-0.3,0.3-0.5,0.3
		l-0.1,0c0,0.2,0,0.4-0.2,0.6c0,0,0.1,0.1,0.1,0.1c0.1,0,0.1,0.1,0.1,0l0.1-0.1l0.1,0.1c-0.1,0.2-0.1,0.3-0.2,0.3
		c-0.1,0,0,0.1-0.1,0.1c-0.1,0,0,0.1-0.1,0.1s-0.1,0-0.1,0.1c0,0.1-0.2,0.1-0.3,0.2c-0.2,0-0.3,0.1-0.3,0.2c0,0.1,0.1,0.1,0.1,0.1
		c0.1,0,0.1,0,0.2,0c-0.1,0-0.1,0-0.1,0.1c-0.1,0-0.1,0.1-0.2,0.1c-0.2,0-0.2,0-0.3,0c-0.1,0-0.1,0.1-0.1,0.2c0,0.1,0.1,0.1,0.4,0.2
		l-0.2,0c-0.2,0-0.4,0.2-0.5,0.4c0,0.1-0.1,0.2-0.1,0.3l0.4-0.5l0.1,0c0,0.1-0.1,0.3-0.2,0.5c-0.4,0.6-0.8,1-1,1
		c-0.2,0-0.3,0.1-0.3,0.1l0.2,0.1l0.2,0c0.1,0,0.1,0,0.1,0.1c0,0-0.1,0.1-0.3,0.1c-0.2,0-0.4,0.1-0.5,0.3c0,0.1-0.1,0.2-0.1,0.2
		l0.1,0.1l0.1,0c0.1,0,0.1,0,0.2,0c0.1,0,0.1,0.1,0.1,0.1c0,0.1,0,0.1-0.1,0.1c-0.1,0-0.2,0-0.2,0.1c0,0.1-0.1,0.2-0.1,0.2
		s0,0.1,0,0.2c0,0.2-0.1,0.2-0.2,0.2l0,0.2c0,0.1-0.1,0.3-0.5,0.7c-0.1,0-0.1,0.1-0.1,0.3c0,0.2-0.1,0.3-0.2,0.4
		c0,0.4-0.2,0.6-0.3,0.6l0,0.2c0.3,0,0.5-0.2,0.8-0.6l0.6-0.8c0.1,0,0.1-0.1,0.1-0.2l0-0.1c0.1-0.2,0.2-0.3,0.3-0.3l0.2-0.4
		c0.5-0.7,0.8-1.1,0.7-1.3l0,0l0.1,0c0.2,0,0.2-0.1,0.2-0.2c0,0,0-0.1,0.1-0.2c0.1,0,0.1-0.1,0.2-0.1c0,0,0-0.1,0-0.2l0.5-0.8
		c0.5-0.4,0.6-0.7,0.6-0.7c0.1-0.1,0.2-0.2,0.3-0.2c0.1,0,0.2-0.1,0.1-0.3c0-0.1,0-0.2,0.1-0.4c0.2-0.1,0.3-0.4,0.5-0.7
		c0.1-0.2,0.3-0.4,0.4-0.6c0.1-0.2,0.2-0.3,0.4-0.3c0.1,0,0.2-0.1,0.4-0.2c0.1-0.1,0.2-0.1,0.1-0.2l-0.1-0.1c0-0.1,0-0.2,0.2-0.4
		c0.1-0.2,0.3-0.4,0.5-0.6c0.1-0.2,0.3-0.4,0.4-0.6c0.1-0.2,0.2-0.2,0.2-0.2c0,0,0,0,0-0.1s0.1-0.2,0.1-0.3c0-0.1,0.1-0.2,0.2-0.3
		c0-0.1,0.2-0.1,0.2-0.2l0.1,0c0,0.3-1,1.9-3,4.8c-2.3,3.4-3.7,5.6-4.3,6.7C158.3,41.5,158.6,41.2,159,40.5z M160,34.3
		c0.1,0,0-0.1,0-0.2c0-0.1-0.1-0.1-0.1-0.1l-0.1,0.2C159.8,34.4,159.9,34.4,160,34.3L160,34.3z M160.9,33.1c0-0.1,0-0.1,0.1-0.2
		c0.1-0.1,0.1-0.2,0.1-0.3l-0.1-0.1c-0.2,0.1-0.2,0.3-0.3,0.4c-0.1,0.1-0.1,0.2-0.2,0.3c0,0,0.1,0.1,0.1,0
		C160.9,33.2,160.9,33.2,160.9,33.1z M161.7,31.8l-0.1,0c-0.1,0-0.1,0-0.2,0.1c0,0.1-0.1,0.1-0.1,0.2c0,0.1-0.1,0.2-0.1,0.2l0.3,0
		C161.6,32.1,161.7,32,161.7,31.8z M162,31.5l-0.1-0.1c-0.2,0-0.2,0.1-0.2,0.1c0,0.1,0.1,0.1,0.1,0.1L162,31.5z M162.1,30.9
		l-0.2,0.3l0.1,0C162.1,31.2,162.1,31.1,162.1,30.9z M162.8,29.8c0,0,0,0.1-0.1,0.2c-0.1,0.1-0.2,0.3-0.3,0.4
		c-0.1,0.1-0.2,0.2-0.3,0.2L162.8,29.8z M163.4,35l0-0.2l0.1,0.1c0.1,0.1,0.1,0.2,0.1,0.2l-0.1,0.1L163.4,35z M163.8,34.5
		c-0.1,0-0.1,0-0.1-0.1l0,0c0.1,0,0.1,0,0.1,0l0.1,0.1l0,0.1L163.8,34.5z M164.1,27.9l0.4-0.5c0,0.1-0.1,0.3-0.4,0.7
		c-0.2,0.4-0.4,0.5-0.5,0.5C163.6,28.5,163.8,28.2,164.1,27.9z M165.1,26.5c0.1-0.1,0.2-0.3,0.4-0.5c0.1-0.2,0.3-0.3,0.4-0.4l0,0.1
		c-0.3,0.5-0.7,0.9-1,1.1C164.9,26.8,165,26.7,165.1,26.5z M165.8,29.7c0-0.1,0.1-0.1,0.1-0.2c0-0.1,0.2-0.1,0.2-0.2
		c0.1,0,0.1-0.1,0.2-0.1c0,0.1,0,0.2-0.1,0.2C166.1,29.7,166,29.8,165.8,29.7L165.8,29.7z M166.3,29l-0.4,0.2l0.2-0.3
		c0.3-0.5,0.6-0.8,0.8-1c0.2-0.2,0.4-0.3,0.6-0.3l0.1,0l0,0.1c-0.1,0.2-0.2,0.4-0.3,0.6c-0.1,0.2-0.3,0.4-0.5,0.6
		c-0.1,0.2-0.3,0.2-0.4,0.2L166.3,29z M165.9,25.4l0.4-0.3l0,0.1c0,0.1-0.1,0.2-0.3,0.3L165.9,25.4z M166.8,24.3l0.4-0.2
		c0,0,0,0.1-0.1,0.2c-0.1,0.1-0.2,0.2-0.3,0.3c-0.2,0.1-0.3,0.1-0.4,0.2L166.8,24.3z M167.5,27.2c0,0,0-0.1,0.1-0.1l0.2,0l0-0.2
		c0-0.1,0-0.2,0.1-0.2l0.9-0.9c0,0.2-0.1,0.4-0.3,0.7c-0.4,0.4-0.7,0.7-0.9,0.7C167.5,27.3,167.5,27.3,167.5,27.2z M167.4,23.7
		l0.2-0.1c0,0.1-0.1,0.2-0.2,0.2c0,0.1-0.2,0.1-0.2,0.1L167.4,23.7z M167.8,23.3c0.1-0.2,0.2-0.3,0.3-0.3l0,0.1c0,0,0,0.1,0,0.1
		C168,23.2,167.9,23.3,167.8,23.3c0,0.1,0,0.2-0.1,0.2L167.8,23.3z M168.2,22.7c0-0.1,0.1-0.1,0.4-0.2c-0.1,0.2-0.2,0.3-0.4,0.4
		C168.2,22.8,168.2,22.7,168.2,22.7z M168.8,25.5C168.7,25.5,168.7,25.5,168.8,25.5c-0.1-0.1,0-0.2,0.1-0.2c0.1,0,0.1,0,0.2,0
		C169,25.3,169,25.4,168.8,25.5L168.8,25.5z M169,21.9c0.1,0,0.2-0.1,0.2-0.1s0.1-0.1,0.2-0.1c0,0.1,0,0.1-0.1,0.2
		C169.2,21.9,169.1,22,169,21.9c0,0.1-0.1,0.2-0.1,0.2C168.8,22.1,168.9,22,169,21.9z M169.9,24.6c0-0.1,0-0.1,0-0.2
		c0-0.1,0.1-0.2,0.1-0.3s0.1-0.2,0.2-0.3c0-0.1,0.1-0.2,0.2-0.3c0-0.1,0.2-0.1,0.3-0.2c0.2-0.1,0.3-0.1,0.4-0.2
		c0,0.2-0.2,0.5-0.5,0.8c-0.3,0.4-0.5,0.6-0.5,0.7c0,0.1,0,0.2-0.1,0.2C169.9,24.7,169.9,24.6,169.9,24.6z M171.4,21.2
		c0-0.1-0.1-0.1-0.2-0.1l-0.3,0.1c0,0,0.1,0,0.1,0c0.1,0,0.2,0,0.3,0L171.4,21.2L171.4,21.2z M171.3,22.7L171.3,22.7
		c0-0.1,0-0.3,0.1-0.4c0.1-0.1,0.1-0.2,0.1-0.2c0,0,0-0.1,0.2-0.1c0-0.1,0.2-0.1,0.3-0.1l0.1,0l-0.1,0.1c0,0.2-0.1,0.3-0.2,0.4
		c-0.1,0.2-0.2,0.2-0.4,0.2C171.3,22.8,171.3,22.8,171.3,22.7z M172.2,21.6c0-0.1,0.4-0.5,1.1-1.3c0.1-0.3,0.3-0.5,0.6-0.8
		c0.1,0,0.3-0.2,0.6-0.4c0.2-0.2,0.4-0.3,0.5-0.3c0,0.1,0,0.2-0.2,0.3c-0.2,0-0.2,0.1-0.2,0.1c0,0.1-0.2,0.4-0.5,0.7
		c-0.1,0.2-0.3,0.3-0.3,0.4c-0.1,0.2-0.3,0.3-0.6,0.5c-0.2,0.1-0.3,0.2-0.2,0.3c-0.2,0.3-0.4,0.5-0.5,0.5
		C172.3,21.7,172.2,21.7,172.2,21.6z M172.1,18.7c0.2,0,0.3-0.1,0.4-0.1l-0.1,0c0-0.1,0-0.2,0.1-0.2c0.1,0,0.2-0.1,0.2-0.1
		c-0.1,0-0.3,0.1-0.4,0.3c-0.2,0.2-0.3,0.3-0.3,0.4L172.1,18.7z M173.1,17.8c-0.1,0-0.1,0-0.1,0s-0.1,0.1-0.2,0.1
		c0,0.1,0.1,0.1,0.2,0.1L173.1,17.8z M173.9,17c-0.1,0-0.1,0-0.2,0.1c-0.1,0.1-0.2,0.1-0.3,0.2c0,0.1-0.1,0.2-0.1,0.2l0.1,0
		L173.9,17z M174.1,16.8c0.1,0,0.1,0,0.2-0.1s0.1,0,0.1-0.1c0.1,0,0-0.1,0-0.1c-0.1,0-0.1,0-0.2,0.1c-0.1,0-0.2,0.1-0.3,0.1
		c0,0.1-0.1,0.1-0.1,0.1L174.1,16.8z M174.6,17.6l-0.1,0c-0.1,0-0.1,0-0.2,0c-0.1,0-0.2,0.1-0.2,0.1l0.1,0
		C174.5,17.8,174.6,17.7,174.6,17.6z M175.3,15.8c0-0.1,0-0.1,0.1-0.2c0.1,0,0.1-0.1,0.1-0.2c0-0.1,0.2-0.1,0.2-0.2
		c0-0.1,0.1-0.1,0.1-0.1l-0.1,0c-0.1,0-0.2,0.1-0.5,0.3s-0.4,0.4-0.4,0.5L175,16l0.2,0C175.2,15.9,175.2,15.9,175.3,15.8z
		 M175.1,18.3c0,0,0-0.1,0-0.2c0-0.1,0.1-0.1,0.2-0.1c0.1,0,0.2-0.1,0.2-0.2s0.1-0.2,0.3-0.2l0.1,0c0,0.1,0,0.2-0.1,0.3
		c0,0.1-0.2,0.2-0.6,0.4C175.2,18.5,175.1,18.4,175.1,18.3z M176.1,17.6l-0.1,0l0.2-0.3c0.2,0,0.2-0.2,0.2-0.3
		c0.1-0.2,0.2-0.3,0.4-0.3c0.2,0,0.2,0,0.2,0.2l-0.1,0.2c-0.3,0.3-0.6,0.5-0.7,0.5L176.1,17.6z M177.1,16.5l-0.1-0.1l0.2-0.3
		c0.1,0,0.1,0,0.1,0.2l-0.1,0.2L177.1,16.5z M178.2,15.4c-0.1,0-0.1-0.1-0.1-0.2c0-0.1,0-0.1,0.1-0.1l0.3,0c0-0.1,0-0.2-0.1-0.2
		c-0.1,0-0.1,0-0.2,0c0.4-0.2,0.7-0.5,1-0.8c0.3-0.3,0.5-0.4,0.6-0.4c0.1,0,0.1-0.1,0.1-0.2c0-0.1,0.1-0.2,0.4-0.3l0.5-0.5
		c0.1,0,0.1,0,0.1-0.1c0-0.1,0-0.1,0-0.2c0,0,0.1,0,0.2,0l0.4,0c-0.2,0.2-0.5,0.5-0.8,0.8c-0.4,0.3-0.5,0.5-0.7,0.7
		c-0.1,0.2-0.3,0.4-0.5,0.5c-0.3,0.2-0.4,0.3-0.4,0.4c0,0.1-0.2,0.1-0.2,0.1c-0.1,0-0.2,0.1-0.2,0.2c0,0.1-0.1,0.2-0.1,0.3
		s-0.1,0.2-0.2,0.2C178.3,15.5,178.3,15.5,178.2,15.4z M178.9,12l0.2-0.2c-0.1,0-0.2,0.1-0.4,0.3c0,0.1-0.1,0.1-0.1,0.2
		C178.7,12.3,178.8,12.2,178.9,12z M179.9,17.3c0,0,0-0.1,0.1-0.2c0-0.1,0.1-0.2,0.2-0.3s0.2-0.1,0.3-0.1l0,0.1c0,0.1,0,0.1-0.2,0.1
		c-0.1,0-0.2,0-0.2,0.1c0,0.1,0,0.1,0,0.1C180.1,17.2,180,17.3,179.9,17.3L179.9,17.3z M180.6,16.5c0-0.1,0.1-0.2,0.4-0.2
		C180.9,16.4,180.8,16.5,180.6,16.5L180.6,16.5z M181.8,10.3l0.1-0.1l-0.2,0c-0.2,0-0.3,0.1-0.5,0.2l0.1,0L181.8,10.3z M182.5,9.8
		c0-0.1-0.1-0.1-0.1-0.1l-0.2,0.1c0,0.1,0.1,0.1,0.1,0.1L182.5,9.8z M183.2,8.4L183.2,8.4c-0.1,0-0.2,0-0.3,0.1
		c-0.1,0-0.2,0.1-0.3,0.2l0.1,0L183.2,8.4z M183.3,9.1c0.1-0.2,0.2-0.3,0.2-0.3c-0.2,0.1-0.3,0.3-0.4,0.4c-0.2,0.1-0.2,0.3-0.3,0.4
		C183,9.4,183.2,9.3,183.3,9.1z M184.5,8.1c0.2-0.2,0.3-0.3,0.3-0.3l-0.2,0c-0.1,0-0.1,0-0.2,0.1c-0.1,0-0.2,0.1-0.3,0.2
		c0,0.1-0.1,0.2-0.3,0.2l0,0.1c0,0.1,0.1,0.1,0.2,0.1L184.5,8.1z M185.1,12l0.5-0.4c0-0.2,0.4-0.5,1-1c0.8-0.8,1.3-1.2,1.3-1.4
		l-1.7,1.5c-0.9,0.8-1.3,1.2-1.3,1.4L185.1,12z M188.5,6.1c0-0.1,0.1-0.2,0.4-0.3l1.4-1c0.7-0.4,1-0.7,1-1c-0.2,0-0.7,0.3-1.5,0.8
		l-0.6,0.5c-0.3,0.2-0.5,0.3-0.5,0.4c0,0.1-0.1,0.2-0.2,0.3c-0.1,0.1-0.2,0.2-0.3,0.3c0,0,0.1,0.1,0.1,0
		C188.4,6.2,188.5,6.1,188.5,6.1z"/>
</g>
</svg>
