<svg xmlns="http://www.w3.org/2000/svg" xmlns:xlink="http://www.w3.org/1999/xlink" viewBox="0 0 500 500"><defs><style>.cls-1{fill:#fff;}.cls-10,.cls-11,.cls-16,.cls-17,.cls-18,.cls-2,.cls-20,.cls-22,.cls-29,.cls-34,.cls-44,.cls-46,.cls-47,.cls-9{fill:none;}.cls-3{isolation:isolate;}.cls-4{fill:#fffbf0;}.cls-5,.cls-6,.cls-8{fill:#fee4e3;}.cls-35,.cls-51,.cls-6{opacity:0.5;}.cls-10,.cls-23,.cls-25,.cls-30,.cls-35,.cls-38,.cls-42,.cls-44,.cls-50,.cls-51,.cls-6,.cls-7,.cls-8,.cls-9{mix-blend-mode:multiply;}.cls-7{opacity:0.75;}.cls-10,.cls-9{stroke:#fee4e3;}.cls-10,.cls-11,.cls-14,.cls-15,.cls-16,.cls-17,.cls-18,.cls-20,.cls-22,.cls-29,.cls-32,.cls-34,.cls-44,.cls-46,.cls-47,.cls-9{stroke-miterlimit:10;}.cls-9{stroke-width:1.5px;}.cls-10,.cls-11,.cls-14,.cls-15,.cls-16,.cls-17,.cls-18,.cls-22,.cls-29,.cls-32,.cls-34,.cls-44,.cls-47{stroke-linecap:round;}.cls-11{stroke:#fb413b;}.cls-11,.cls-22{stroke-width:3px;}.cls-12,.cls-51{fill:#fb413b;}.cls-13{clip-path:url(#clip-path);}.cls-14,.cls-21{fill:#006837;}.cls-14,.cls-18,.cls-22{stroke:#006837;}.cls-14,.cls-15,.cls-16{stroke-width:0.5px;}.cls-15,.cls-19,.cls-30{fill:#ff9b94;}.cls-15,.cls-16,.cls-17,.cls-20,.cls-29{stroke:#ff9b94;}.cls-24{fill:#db928f;}.cls-25,.cls-30{opacity:0.35;}.cls-26{mask:url(#mask);}.cls-27{fill:#09231c;}.cls-28,.cls-35{fill:#e7aaa7;}.cls-29{stroke-width:4px;}.cls-31,.cls-32{fill:#009245;}.cls-32{stroke:#009245;}.cls-33{mask:url(#mask-2);}.cls-34{stroke:#09231c;}.cls-34,.cls-46{stroke-width:2px;}.cls-36{fill:#c4322e;}.cls-37,.cls-38{fill:#f1d3c3;}.cls-39{fill:#491b0b;}.cls-40{fill:#e9937f;}.cls-41{fill:#b5b5b5;}.cls-42{opacity:0.2;}.cls-43{clip-path:url(#clip-path-2);}.cls-44{stroke:#b5b5b5;stroke-width:0.75px;}.cls-45{fill:#1a1a1a;}.cls-46{stroke:#fff;}.cls-47{stroke:#1a1a1a;}.cls-48{fill:#d4bebd;}.cls-49{fill:#f2f2f2;}.cls-50{opacity:0.25;}</style><clipPath id="clip-path" transform="translate(0)"><rect class="cls-2" x="56.72" y="62.37" width="65.01" height="92.16"/></clipPath><mask id="mask" x="321.24" y="350.99" width="56.18" height="83.39" maskUnits="userSpaceOnUse"><g transform="translate(0)"><path class="cls-1" d="M349.73,428.14h0a26.67,26.67,0,0,1-26.67-26.67V355.63H376.4v45.84A26.67,26.67,0,0,1,349.73,428.14Z"/></g></mask><mask id="mask-2" x="397.05" y="381.5" width="53.1" height="51.54" maskUnits="userSpaceOnUse"><g transform="translate(0)"><path class="cls-1" d="M401.58,386.47h43.34a0,0,0,0,1,0,0v23a17.81,17.81,0,0,1-17.81,17.81h-7.72a17.81,17.81,0,0,1-17.81-17.81v-23A0,0,0,0,1,401.58,386.47Z"/></g></mask><clipPath id="clip-path-2" transform="translate(0)"><path class="cls-2" d="M141.06,254s-13.34-3.34-18.34-14.17c4.53-6.79,12.89-16.26,17.8-21.65a18.92,18.92,0,0,1,9.29-5.58c6.77-1.72,17.51-4.44,18.65-4.44,2.5,5,14.95,6.67,19.12,1.67,4.82-.49,11.47,1.26,16.08,2.82a18.83,18.83,0,0,1,9,6.48L227.73,239s-5,10.83-20.83,13.33c-.84,16.67-.84,40.84-.84,40.84l-65.83-.84Z"/></clipPath></defs><g class="cls-3"><g id="BACKGROUND"><rect class="cls-4" width="500" height="500"/><rect class="cls-4" width="500" height="500"/></g><g id="OBJECTS"><rect class="cls-5" y="371.76" width="500" height="128.24"/><ellipse class="cls-6" cx="168" cy="429.37" rx="131.19" ry="10.62"/><ellipse class="cls-6" cx="394.86" cy="431.69" rx="78.95" ry="8.41"/><g class="cls-7"><path class="cls-5" d="M221.91,184.3a165.48,165.48,0,0,1-14.59-51.53c-.74-6.45-.65-14,4.4-18.09,3.36-2.71,8.14-3,12.35-2.07s8.05,3.06,12,4.82c8.2,3.63,17.3,5.86,26.14,4.4s16.46-6.31,25-8.64,19.27-1.16,23.74,6.44c4.19,7.1.95,16.2-3.18,23.33s-9.3,14.44-8.84,22.66c.72,12.55,14.08,21,16.57,33.37,2.12,10.47-4.65,21.31-14,26.48s-20.65,5.59-31.23,4.1-20.85-4.75-31.39-6.5c-5.38-.89-11.2-1.56-15.21-5.25-3.79-3.48-5.08-8.87-5.86-14a125.85,125.85,0,0,1-.55-33.91" transform="translate(0)"/></g><g class="cls-7"><path class="cls-5" d="M199.21,133.08c.22-7,.37-14.49,3.53-20.92,2.61-5.34,7.24-9.89,13.38-10.54,7.25-.76,14.2,2.86,20.6,5.77,6.6,3,13.7,5.83,21.1,4.8,6.22-.88,12.29-5.08,13.8-11.43.45-1.88-2.44-2.68-2.89-.8-1.4,5.89-7.42,9.2-13.14,9.44-7.54.31-14.46-3.33-21.14-6.33-6.37-2.86-13.41-5.59-20.51-4.13-6,1.24-10.69,5.77-13.46,11-3.72,7.07-4,15.28-4.27,23.1-.06,1.93,2.94,1.93,3,0Z" transform="translate(0)"/></g><g class="cls-7"><path class="cls-5" d="M287.2,236.67a32.74,32.74,0,0,0,24.89-8.18,31.63,31.63,0,0,0,10.33-24.63,32.29,32.29,0,0,0-4.26-15.1,1.5,1.5,0,0,0-2.59,1.52A29.83,29.83,0,0,1,317.7,215a28.67,28.67,0,0,1-16.95,16.93,29.4,29.4,0,0,1-13.55,1.75c-1.92-.2-1.91,2.8,0,3Z" transform="translate(0)"/></g><rect class="cls-5" x="315.81" y="145.69" width="146.87" height="8.63" transform="translate(778.49 300.02) rotate(180)"/><rect class="cls-5" x="447.15" y="88.97" width="8.84" height="56.72" transform="translate(903.15 234.67) rotate(180)"/><rect class="cls-8" x="438.31" y="88.97" width="8.84" height="56.72" transform="translate(885.46 234.67) rotate(180)"/><rect class="cls-5" x="429.47" y="88.97" width="8.84" height="56.72" transform="translate(867.78 234.67) rotate(180)"/><rect class="cls-5" x="402.2" y="88.97" width="8.84" height="56.72" transform="translate(747.15 368.64) rotate(-159.67)"/><rect class="cls-8" x="420.62" y="88.97" width="8.84" height="56.72" transform="translate(850.09 234.67) rotate(180)"/><circle class="cls-5" cx="370.29" cy="126.72" r="17.13"/><circle class="cls-9" cx="370.29" cy="126.72" r="12.94"/><rect class="cls-5" x="360.27" y="142.01" width="20.04" height="3.68" rx="1.51" transform="translate(740.58 287.71) rotate(180)"/><line class="cls-10" x1="370.29" y1="126.72" x2="370.29" y2="120.19"/><line class="cls-10" x1="363.66" y1="126.83" x2="370.19" y2="126.83"/><rect class="cls-11" x="49.72" y="52.44" width="79.01" height="112.01"/><rect class="cls-12" x="56.72" y="62.37" width="65.01" height="92.16"/><g class="cls-13"><circle class="cls-14" cx="66.22" cy="76.94" r="22.5" transform="translate(-35.01 69.36) rotate(-45)"/><path class="cls-15" d="M76.72,145.45a4,4,0,1,1,4,4A4,4,0,0,1,76.72,145.45Z" transform="translate(0)"/><circle class="cls-16" cx="80.72" cy="145.45" r="9" transform="translate(-79.38 190.59) rotate(-76.72)"/><circle class="cls-17" cx="80.72" cy="145.45" r="14"/><rect class="cls-14" x="106.72" y="125.45" width="14" height="14"/><rect class="cls-18" x="99.72" y="118.45" width="28" height="28"/><polygon class="cls-19" points="80.72 81.38 73.67 99.88 87.77 99.88 80.72 81.38"/><polygon class="cls-20" points="80.72 75.46 70.29 102.84 91.15 102.84 80.72 75.46"/><polygon class="cls-21" points="106.17 87.36 103.62 82.94 108.72 82.94 106.17 87.36"/><polygon class="cls-21" points="112.17 91.36 109.62 86.94 114.72 86.94 112.17 91.36"/><polygon class="cls-21" points="107.67 95.86 105.12 91.44 110.22 91.44 107.67 95.86"/><polygon class="cls-21" points="63.08 136.31 61.12 140.72 65.05 140.72 63.08 136.31"/><polygon class="cls-21" points="67.7 132.31 65.74 136.72 69.67 136.72 67.7 132.31"/><polygon class="cls-21" points="64.24 127.81 62.27 132.22 66.2 132.22 64.24 127.81"/></g><line class="cls-22" x1="350.57" y1="180.62" x2="350.57" y2="355.63"/><path class="cls-21" d="M348.09,186.92l.81-.7.42-.33h0l.1-.08.22-.16a19.06,19.06,0,0,1,1.79-1.18.75.75,0,0,0,.27-1,.77.77,0,0,0-1-.27,21.61,21.61,0,0,0-3.64,2.68.75.75,0,0,0,0,1.06.77.77,0,0,0,1.06,0Z" transform="translate(0)"/><path class="cls-21" d="M348.6,184l-1.85,1a.75.75,0,1,0,.76,1.3l1.85-1a.75.75,0,0,0-.76-1.3Z" transform="translate(0)"/><path class="cls-21" d="M351.23,194.83a27,27,0,0,1,9.13,12.91c.3.92,1.75.53,1.45-.4a28.29,28.29,0,0,0-9.52-13.57c-.75-.58-1.82.47-1.06,1.06Z" transform="translate(0)"/><path class="cls-21" d="M356.42,202l0-.23,0,.2a4.4,4.4,0,0,1,.31-1.13l-.08.18a4.63,4.63,0,0,1,.52-.92.73.73,0,0,0,.08-.58.75.75,0,0,0-.34-.44.74.74,0,0,0-.58-.08.82.82,0,0,0-.45.35,5.17,5.17,0,0,0-1,2.65.79.79,0,0,0,.22.53.75.75,0,0,0,1.28-.53Z" transform="translate(0)"/><path class="cls-21" d="M348.35,185.14c-8.08,2.32-14.92,7.94-20,14.64s-8.54,14.46-11.61,22.28-5.79,15.81-9.58,23.31a32.64,32.64,0,0,1-6,8.77A42.45,42.45,0,0,0,318.43,245a78.78,78.78,0,0,0,13-14.73,58,58,0,0,0,4-6.3c6.31-12.05,5.42-27.29,13.41-38.31" transform="translate(0)"/><path class="cls-21" d="M348.15,184.42c-22.88,6.74-29.72,32.32-37.68,51.82-2.47,6-5.11,12.69-9.81,17.37a.76.76,0,0,0,.73,1.26C313,252,322.1,243.74,329.23,234.5c3.67-4.76,7-9.71,9.11-15.38,1.9-5.22,2.94-10.68,4.24-16.07,1.45-6,3.27-12,6.89-17,.57-.79-.73-1.54-1.29-.76-6.32,8.84-7.15,20-10.18,30.11a50.42,50.42,0,0,1-7.71,15.21,76.35,76.35,0,0,1-12.05,13.58A42.32,42.32,0,0,1,301,253.42c.24.42.48.84.73,1.26,3.94-3.94,6.35-9.18,8.56-14.21,2.34-5.34,4.33-10.81,6.42-16.25,4.07-10.54,8.73-21.31,17-29.33a35.89,35.89,0,0,1,14.89-9,.75.75,0,0,0-.4-1.45Z" transform="translate(0)"/><path class="cls-21" d="M359.09,202.25a66.21,66.21,0,0,0,5.72,33.59c3.57,7.77,8.61,14.75,13.22,22s8.88,14.81,10.63,23.18q.7-14,.76-27.92a56,56,0,0,0-.32-7.55,39.69,39.69,0,0,0-1.66-7.05,62,62,0,0,0-11.12-20.31c-5.07-6.15-11.28-11.26-17.5-16.25" transform="translate(0)"/><path class="cls-21" d="M358.34,202.25a67.13,67.13,0,0,0,5.18,32.52c4.49,10.42,11.7,19.29,17.34,29.07a60.22,60.22,0,0,1,7.08,17.33c.18.85,1.43.61,1.47-.2q.48-9.72.67-19.44c.1-5.95.57-12.14-.54-18-2.05-10.78-8-21-15.37-28.95a136.58,136.58,0,0,0-14.82-13.2c-.75-.6-1.81.46-1.06,1.06,8.77,7,17.31,14.39,23,24.23a58.58,58.58,0,0,1,6.26,15c1.51,6,1.1,12.23,1,18.33q-.17,10.47-.69,20.94l1.47-.2c-2.31-10.78-8.5-20-14.46-29.12a138.36,138.36,0,0,1-8.57-14.33,65.28,65.28,0,0,1-6.51-35.07c.09-1-1.42-.95-1.5,0Z" transform="translate(0)"/><path class="cls-21" d="M354.3,272.42a33,33,0,0,0,12.75,11.3c3.82,1.92,8,3.06,12,4.42s8.1,3,11.4,5.72q-4.1-5.67-8.44-11.13a29.25,29.25,0,0,0-2.49-2.84,20,20,0,0,0-2.86-2.23A31,31,0,0,0,366,273.22a58.52,58.52,0,0,0-11.91-.86" transform="translate(0)"/><path class="cls-21" d="M353.65,272.8a34.35,34.35,0,0,0,15.27,12.6c7,3,15,4.1,21,9,.6.48,1.72-.16,1.18-.91q-3.53-4.86-7.22-9.58a29.19,29.19,0,0,0-7.93-7.58,31.68,31.68,0,0,0-9.78-3.82,59.16,59.16,0,0,0-12.11-.89.75.75,0,0,0,0,1.5,58,58,0,0,1,11.48.79,30.5,30.5,0,0,1,9.65,3.72,27.38,27.38,0,0,1,7.48,7.15q3.66,4.67,7.13,9.46l1.18-.9c-5.69-4.59-12.86-6-19.55-8.53A33.61,33.61,0,0,1,355,272c-.54-.8-1.84-.05-1.3.76Z" transform="translate(0)"/><path class="cls-21" d="M359,235.85a22.46,22.46,0,0,0-1.15,11.51,63.13,63.13,0,0,0,2.36,8.37,24.31,24.31,0,0,1,1.4,8.55c1-3,1.9-6,2.75-9.08a19.29,19.29,0,0,0,.58-2.5,14.39,14.39,0,0,0,.09-2.46,21,21,0,0,0-1.82-7.64,39.53,39.53,0,0,0-4.27-6.89" transform="translate(0)"/><path class="cls-21" d="M358.27,235.65a23.79,23.79,0,0,0-.72,13.92c1.2,4.9,3.54,9.56,3.31,14.71,0,.87,1.21,1,1.47.19.86-2.62,1.68-5.27,2.43-7.93a19.26,19.26,0,0,0,.92-7.61c-.56-5.2-3.09-9.45-6.09-13.6-.56-.78-1.86,0-1.3.75,2.92,4,5.48,8.2,5.93,13.29a19.75,19.75,0,0,1-1.1,7.46c-.7,2.43-1.45,4.84-2.24,7.25l1.48.2c.22-4.82-1.72-9.24-3-13.78a22.9,22.9,0,0,1,.37-14.45c.33-.91-1.12-1.3-1.45-.4Z" transform="translate(0)"/><path class="cls-21" d="M340.06,283.11c-5.94,3.63-8.54,9.79-10.74,16.39s-3,13.59-4.16,20.45A167.22,167.22,0,0,1,316.67,351a50.4,50.4,0,0,0,24.88-46.43c-.41-7.09-2.32-14.19-1.2-21.2" transform="translate(0)"/><path class="cls-21" d="M339.68,282.46c-7.16,4.48-10.3,13.11-12.27,20.94-1.28,5.07-2,10.27-2.81,15.42s-2,10.25-3.29,15.29a170.79,170.79,0,0,1-5.36,16.7c-.24.63.57,1.16,1.1.84a51.76,51.76,0,0,0,25.08-49.2c-.58-6.27-2-12.57-1.06-18.87.14-.95-1.3-1.35-1.44-.4-.79,5.26-.05,10.49.6,15.73a57.88,57.88,0,0,1,.16,15.5,49.81,49.81,0,0,1-12.17,26.19,50.5,50.5,0,0,1-11.93,9.76l1.1.85a168.29,168.29,0,0,0,8.12-29c1.76-9.49,2.68-19.12,6.59-28.07,1.83-4.19,4.41-8,8.34-10.42.82-.51.07-1.81-.76-1.3Z" transform="translate(0)"/><path class="cls-21" d="M351.3,273.26c-6.31,10.62-6.59,23.85-4.39,36s6.68,23.79,9.33,35.86c3.09-12.16,6.2-24.48,6.26-37s-3.23-25.57-11.57-35" transform="translate(0)"/><path class="cls-21" d="M350.66,272.88c-10.05,17.14-4.89,37.68.29,55.47,1.64,5.63,3.3,11.26,4.57,17a.75.75,0,0,0,1.44,0c4.93-19.39,10-40.51,2.28-59.9a44.11,44.11,0,0,0-7.78-12.81c-.64-.73-1.7.34-1.06,1.06,12.93,14.7,12.76,35.71,9.2,53.83-1.15,5.86-2.62,11.64-4.08,17.42H357c-4.15-18.72-13-37.36-10-57A40.29,40.29,0,0,1,352,273.64a.75.75,0,0,0-1.29-.76Z" transform="translate(0)"/><path class="cls-21" d="M355,201.93c-7.93,6.23-13.17,15.32-16.56,24.81s-5.1,19.47-7.17,29.33-4.58,19.75-9.38,28.61c3.92-1.55,6.8-4.9,9.46-8.17q6.78-8.37,13-17.15c3.78-5.29,7.45-10.8,9.41-17,1.59-5.07,2-10.43,2.18-15.75.32-8,.25-16-.19-24" transform="translate(0)"/><path class="cls-21" d="M354.45,201.4c-19.11,15.17-20.38,41.44-25.95,63.28a86.19,86.19,0,0,1-7.27,19.62c-.28.52.2,1.37.84,1.1,5.29-2.19,8.74-7,12.18-11.35q5.83-7.37,11.28-15c3.45-4.87,6.75-9.94,8.69-15.63,2-5.85,2.34-12.12,2.55-18.26q.38-11.28-.25-22.56c0-1-1.56-1-1.5,0q.53,9.56.34,19.13c-.12,6.07-.23,12.28-1.68,18.2-1.41,5.76-4.36,10.93-7.67,15.8s-7,9.87-10.75,14.65c-2.05,2.65-4.11,5.31-6.31,7.83a20.32,20.32,0,0,1-7.27,5.78l.84,1.1c11.51-21.43,9.43-47.39,21.36-68.63a47.17,47.17,0,0,1,11.63-14c.75-.6-.32-1.65-1.06-1.06Z" transform="translate(0)"/><path class="cls-21" d="M350.92,181.53c1.15,4.41,5.09,7.54,9.19,9.51s8.59,3.13,12.54,5.39a25.33,25.33,0,0,1,11.14,13.35,29.82,29.82,0,0,0-1.86-18.32A23.79,23.79,0,0,0,368.65,179a19.86,19.86,0,0,0-17.87,2.22" transform="translate(0)"/><path class="cls-21" d="M350.2,181.73c2.06,7.4,9.81,10.21,16.25,12.7a30.73,30.73,0,0,1,10.31,6,24.75,24.75,0,0,1,6.31,9.57c.23.63,1.29.79,1.44,0,1.54-7.75.47-16.13-4.11-22.71a23.07,23.07,0,0,0-18-10.21,20.08,20.08,0,0,0-12,3.49c-.79.54,0,1.84.76,1.29a19.35,19.35,0,0,1,19.73-1.08,24.13,24.13,0,0,1,12,15.82,30.32,30.32,0,0,1,.16,13h1.44a26.68,26.68,0,0,0-14.63-15.36c-6.61-2.89-16-4.89-18.23-12.89a.75.75,0,0,0-1.45.4Z" transform="translate(0)"/><path class="cls-21" d="M350.11,179.37c-.81-4.22-3.57-7.87-6.9-10.59a55.9,55.9,0,0,0-11.12-6.5A55.1,55.1,0,0,1,321,155.79c1.43,4.63,2.88,9.3,5.28,13.51s5.86,8,10.33,9.85c4.63,1.94,9.95,1.68,14.75.22" transform="translate(0)"/><path class="cls-21" d="M350.84,179.17c-2.91-14-19.77-16.24-29.34-23.91-.54-.43-1.5-.06-1.25.73,2.24,7.24,4.68,14.89,10.43,20.18s13.53,6.09,20.85,3.92a.75.75,0,0,0-.4-1.45c-7.1,2.11-14.53,1.28-20-4.07-5.17-5.11-7.39-12.22-9.48-19l-1.25.73c5.14,4.12,11.33,6.36,17,9.54,5.42,3,10.6,7.35,11.92,13.71.2,1,1.64.55,1.45-.4Z" transform="translate(0)"/><path class="cls-21" d="M350.12,177.52c-1.82-5.63-1.5-11.77-.1-17.51s3.84-11.17,6.27-16.55c-.56,4.23.25,8.52,1,12.73s1.44,8.53.66,12.73-3.34,8.33-7.33,9.84" transform="translate(0)"/><path class="cls-21" d="M350.85,177.32c-3.61-11.52,1.4-23.1,6.08-33.48l-1.39-.38c-.8,6.71,1.56,13.16,1.94,19.81.33,5.61-1.28,12.44-7.07,14.76-.89.36-.5,1.81.39,1.45,5.58-2.23,8.06-8.17,8.22-13.85.22-7.47-2.88-14.67-2-22.17a.76.76,0,0,0-1.4-.38c-4.85,10.76-10,22.71-6.24,34.64.29.91,1.74.52,1.45-.4Z" transform="translate(0)"/><path class="cls-21" d="M341,283.32a52.77,52.77,0,0,1,9.48-9.23.78.78,0,0,0,.27-1,.77.77,0,0,0-1-.27,55.21,55.21,0,0,0-9.79,9.47.78.78,0,0,0,0,1.06.76.76,0,0,0,1.07,0Z" transform="translate(0)"/><path class="cls-21" d="M354.88,271.75c-.41-.09-.82-.17-1.22-.29l-.27-.08-.18-.07h0a4.07,4.07,0,0,1-.55-.28l-.09-.06s-.15-.11-.06,0,0,0-.05,0l-.1-.1-.19-.19a1.06,1.06,0,0,0-.09-.11s.09.13,0,0-.1-.15-.14-.23l-.06-.12c0-.09.06.17,0,0s0-.15-.07-.23,0-.11,0-.13v.09s0-.07,0-.11a.75.75,0,0,0-1.5,0,3.22,3.22,0,0,0,1.46,2.43,7,7,0,0,0,2.71,1,.76.76,0,0,0,.92-.52.75.75,0,0,0-.52-.92Z" transform="translate(0)"/><g class="cls-23"><path class="cls-21" d="M351.31,173c5.13-6.52-.17-15.5,4.08-22.29.25-.41-.39-.79-.65-.38-4.22,6.74,1,15.78-4,22.14-.3.38.23.91.53.53Z" transform="translate(0)"/></g><g class="cls-23"><path class="cls-21" d="M325,160.72c3.14,9.49,13.32,13,22,15.59a.37.37,0,0,0,.2-.72c-8.39-2.5-18.42-5.86-21.46-15.07-.15-.46-.88-.26-.73.2Z" transform="translate(0)"/></g><g class="cls-23"><path class="cls-21" d="M357.11,182.2a30.3,30.3,0,0,1,24.5,20.06c.16.45.88.26.73-.2a31.09,31.09,0,0,0-25.23-20.61c-.48-.06-.47.69,0,.75Z" transform="translate(0)"/></g><g class="cls-23"><path class="cls-21" d="M342.78,188.8c-6.1,5.27-9.7,12.62-12.53,20-3.2,8.4-5.74,17-10.66,24.63a61.08,61.08,0,0,1-9.33,11.2c-.35.33.18.86.53.53a62.16,62.16,0,0,0,14.27-20.42c3.48-8,5.63-16.59,9.73-24.35a37.83,37.83,0,0,1,8.52-11.09c.37-.32-.16-.84-.53-.53Z" transform="translate(0)"/></g><g class="cls-23"><path class="cls-21" d="M352.58,210.75c-8.33,14.59-10.12,31.62-16.29,47.05a64.7,64.7,0,0,1-6.67,12.71c-.27.4.38.77.65.38,9.47-13.79,11.66-30.73,17-46.24a77.66,77.66,0,0,1,6-13.52.38.38,0,0,0-.65-.38Z" transform="translate(0)"/></g><g class="cls-23"><path class="cls-21" d="M362.88,208.87a93,93,0,0,1,19.61,39.48,91.53,91.53,0,0,1,1.93,12.54c0,.48.79.49.75,0a94,94,0,0,0-14.25-42.34,92.42,92.42,0,0,0-7.51-10.21c-.31-.37-.84.17-.53.53Z" transform="translate(0)"/></g><g class="cls-23"><path class="cls-21" d="M360.14,241.4q1.32,7.08,2,14.26c.05.47.8.48.75,0q-.72-7.28-2.05-14.46c-.09-.47-.82-.27-.73.2Z" transform="translate(0)"/></g><g class="cls-23"><path class="cls-21" d="M361.24,275.66a59.42,59.42,0,0,1,19.26,9.53c.39.29.76-.36.38-.64a59.8,59.8,0,0,0-19.44-9.61.37.37,0,0,0-.2.72Z" transform="translate(0)"/></g><g class="cls-23"><path class="cls-21" d="M336,291.17c-2.12,2.95-2.93,6.47-3.34,10-.47,4-.62,8-1.13,12-1.06,8.2-3.1,16.37-7.46,23.47a.38.38,0,0,0,.65.38c4.18-6.81,6.27-14.61,7.37-22.47.54-3.83.8-7.68,1.13-11.53.35-4,1-8.13,3.43-11.49.29-.39-.36-.76-.65-.38Z" transform="translate(0)"/></g><g class="cls-23"><path class="cls-21" d="M352.2,281.72a202.62,202.62,0,0,1,3.53,42.21.38.38,0,0,0,.75,0,203.81,203.81,0,0,0-3.56-42.41c-.09-.47-.81-.27-.72.2Z" transform="translate(0)"/></g><path class="cls-24" d="M349.73,428.14h0a26.67,26.67,0,0,1-26.67-26.67V355.63H376.4v45.84A26.67,26.67,0,0,1,349.73,428.14Z" transform="translate(0)"/><g class="cls-25"><path class="cls-24" d="M376.4,401.47V355.63h-6.89a117.49,117.49,0,0,1-43.16,58.68,26.67,26.67,0,0,0,23.38,13.83h0A26.67,26.67,0,0,0,376.4,401.47Z" transform="translate(0)"/></g><g class="cls-26"><path class="cls-27" d="M323.15,354.52c-1.07,5.7.52,12.13,5.69,15.35,2.85,1.78,6.23,2.38,9.45,3.16a29.7,29.7,0,0,1,10.19,4.11,13.62,13.62,0,0,1,5.8,8.51c.74,3.76,0,7.67-.86,11.34-1.49,6.58-3.21,13.69.76,19.76,3.58,5.47,10.09,8.71,12.68,14.87.37.88,1.82.49,1.45-.4-2.24-5.33-7.11-8.55-10.87-12.72a15.3,15.3,0,0,1-4.17-8.62c-.39-3.63.4-7.27,1.21-10.78,1.5-6.55,3.06-13.9-1.42-19.68-4.23-5.46-11-7-17.39-8.55-3.74-.93-7.41-2.31-9.5-5.77a14.65,14.65,0,0,1-1.57-10.18c.17-.95-1.27-1.35-1.45-.4Z" transform="translate(0)"/><path class="cls-27" d="M322.34,384.61c3.72-2.42,8.18-5.27,12.82-3.85,4.35,1.34,5.48,6.2,4.33,10.17-2.47,8.48-12.75,12.71-13.14,22.16a13.53,13.53,0,0,0,5.09,11.06c.75.59,1.82-.46,1.06-1.06a12.05,12.05,0,0,1-4.5-11.4c.88-4.95,4.75-8.55,7.89-12.18,2.79-3.22,5.41-6.9,5.53-11.33.1-3.88-1.86-7.56-5.69-8.81-5.1-1.66-10,1.26-14.14,3.94-.81.53-.06,1.83.75,1.3Z" transform="translate(0)"/><path class="cls-27" d="M337.05,353.51a17,17,0,0,0,10.05,14c3,1.34,6.66,2.09,9.73.59,2.75-1.35,4.33-4.18,5.55-6.86,1.49-3.27,2.92-7.41,6.63-8.74.9-.32.51-1.77-.4-1.44-3.38,1.21-5.24,4.31-6.64,7.43-1.52,3.35-3.08,7.73-7.08,8.73s-8.49-1.22-11.36-3.83a14.88,14.88,0,0,1-5-9.86c-.07-1-1.57-1-1.5,0Z" transform="translate(0)"/><path class="cls-27" d="M376.52,364.88a20.15,20.15,0,0,0-12.92,20.63c.85,8.42,6.68,15,9.61,22.69a22.81,22.81,0,0,1,1.58,7.51,45.71,45.71,0,0,1-1,9.39c-.17.94,1.27,1.35,1.45.4.85-4.68,1.62-9.42.55-14.13a42.72,42.72,0,0,0-4.54-10.75c-1.93-3.54-4-7.06-5.21-10.93a19.31,19.31,0,0,1,.35-13.05,18.62,18.62,0,0,1,10.57-10.32c.89-.34.5-1.79-.4-1.44Z" transform="translate(0)"/><path class="cls-27" d="M342.19,431.76a42.61,42.61,0,0,1-3.33-12.23,44.66,44.66,0,0,1-.28-6.22,25.07,25.07,0,0,1,.7-6.23,3.24,3.24,0,0,1,1.87-2.33,2.46,2.46,0,0,1,2.59,1.22,15,15,0,0,1,2.24,5.57c.93,3.86,1.07,7.85,1.74,11.76s1.95,7.8,4.65,10.83c.65.73,1.71-.34,1.06-1.06-6.25-7-3.75-17.52-7.23-25.68-.66-1.56-1.58-3.26-3.22-4a3.57,3.57,0,0,0-4.23,1.34c-1.19,1.57-1.31,3.76-1.49,5.65a43.29,43.29,0,0,0-.09,7.11,45.18,45.18,0,0,0,3.72,15c.39.88,1.68.12,1.3-.76Z" transform="translate(0)"/></g><circle class="cls-28" cx="310.95" cy="129.11" r="8.33" transform="translate(-0.22 257.69) rotate(-45)"/><path class="cls-19" d="M313.77,91.61h0A28.23,28.23,0,0,1,342,119.84v8.44a0,0,0,0,1,0,0H285.54a0,0,0,0,1,0,0v-8.44A28.23,28.23,0,0,1,313.77,91.61Z"/><path class="cls-29" d="M313.61,92.5A41.9,41.9,0,0,1,318.82,86c10-10.16,23.41-12,29.17-12.46h0c22.78,0,41.25,19,41.25,42.53V424" transform="translate(0)"/><path class="cls-19" d="M365.91,414.8h43.34a12.5,12.5,0,0,1,12.5,12.5v0a0,0,0,0,1,0,0H353.41a0,0,0,0,1,0,0v0A12.5,12.5,0,0,1,365.91,414.8Z"/><path class="cls-30" d="M421.75,427.31a12.51,12.51,0,0,0-12.5-12.51H399.8c-4.79,5.12-11.59,9.44-17.27,12.51Z" transform="translate(0)"/><g class="cls-25"><path class="cls-19" d="M288.89,128.28H342v-8.44a28.14,28.14,0,0,0-8.1-19.78A94.35,94.35,0,0,1,288.89,128.28Z" transform="translate(0)"/></g><path class="cls-31" d="M419.78,292.07a3.4,3.4,0,0,0,0,.45v-.23A.78.78,0,0,1,419.78,292.07Z" transform="translate(0)"/><path class="cls-31" d="M435.43,296.41A6,6,0,0,1,427,297a5,5,0,0,1-.46-7.07,4.21,4.21,0,0,1,5.94-.38,3.57,3.57,0,0,1,.32,5,3,3,0,0,1-2.09,1,3.06,3.06,0,0,1-2.21-.75,2.63,2.63,0,0,1-.24-3.73,1,1,0,0,1,1.41-.09,1,1,0,0,1,.09,1.41.61.61,0,0,0-.16.46.63.63,0,0,0,.22.44,1,1,0,0,0,.76.26,1,1,0,0,0,.72-.35,1.57,1.57,0,0,0-.14-2.21,2.21,2.21,0,0,0-3.12.2,3,3,0,0,0,.28,4.25,4.09,4.09,0,0,0,2.9,1,4,4,0,0,0,2.76-1.36,5.26,5.26,0,0,0-.48-7.43,6.83,6.83,0,0,0-9.64.62,6.73,6.73,0,0,0-2.06,4.24v94a1,1,0,0,1-2,0V334.74a10.41,10.41,0,0,0-6.9-8.42,8.12,8.12,0,0,0-10.37,5,6.33,6.33,0,0,0,3.88,8,4.86,4.86,0,0,0,6.18-3,3.61,3.61,0,0,0-.16-2.81,3.67,3.67,0,0,0-2.1-1.88,2.75,2.75,0,0,0-3.5,1.69,1,1,0,1,1-1.89-.66,4.75,4.75,0,0,1,6-2.92,5.69,5.69,0,0,1,3.5,7.24,6.87,6.87,0,0,1-6.48,4.6,6.77,6.77,0,0,1-2.24-.39,8.31,8.31,0,0,1-5.12-10.58,10.13,10.13,0,0,1,12.92-6.24,12.42,12.42,0,0,1,6.24,4.81V292.52a3.4,3.4,0,0,1,0-.45,9.3,9.3,0,0,1,15-5.91A7.26,7.26,0,0,1,435.43,296.41Z" transform="translate(0)"/><path class="cls-32" d="M419.08,312.3h0A18.34,18.34,0,0,1,400.74,294h0a18.34,18.34,0,0,1,18.34,18.34Z" transform="translate(0)"/><path class="cls-32" d="M425.68,381.79h0a41.68,41.68,0,0,1,35.13-47.32h0A41.66,41.66,0,0,1,425.68,381.79Z" transform="translate(0)"/><path class="cls-32" d="M417,379.57h0a21.67,21.67,0,0,1-15.88-26.21h0A21.67,21.67,0,0,1,417,379.57Z" transform="translate(0)"/><path class="cls-32" d="M430.19,339.13h0a10,10,0,0,1-5.56,13h0a10,10,0,0,1,5.56-13Z" transform="translate(0)"/><path class="cls-32" d="M441.89,373.92h.19a12,12,0,0,1,12,12v.2a0,0,0,0,1,0,0h-.2a12,12,0,0,1-12-12v-.2A0,0,0,0,1,441.89,373.92Z" transform="translate(-79.51 638.58) rotate(-66.42)"/><path class="cls-32" d="M412.48,382.65h0a6.89,6.89,0,0,1-8.85-4.1h0a6.9,6.9,0,0,1,8.85,4.1Z" transform="translate(0)"/><path class="cls-32" d="M436.16,314.4h0a14.16,14.16,0,0,1-13.32,15h0a14.16,14.16,0,0,1,13.32-15Z" transform="translate(0)"/><g class="cls-23"><path class="cls-31" d="M429.26,376.38A200.79,200.79,0,0,1,454,342.58c.33-.36-.2-.89-.53-.53A201.47,201.47,0,0,0,428.62,376a.37.37,0,0,0,.64.38Z" transform="translate(0)"/></g><g class="cls-23"><path class="cls-31" d="M403.24,356.61a80.4,80.4,0,0,1,10.2,18.58c.17.45.9.25.72-.2a80.9,80.9,0,0,0-10.27-18.76c-.29-.38-.94,0-.65.38Z" transform="translate(0)"/></g><g class="cls-23"><path class="cls-31" d="M444.08,381.57a28.49,28.49,0,0,1,7.4-3.11.38.38,0,0,0-.2-.73,29.54,29.54,0,0,0-7.58,3.19.38.38,0,0,0,.38.65Z" transform="translate(0)"/></g><g class="cls-23"><path class="cls-31" d="M425.81,348.84a77.81,77.81,0,0,1,3.64-7.1.38.38,0,0,0-.65-.38q-2,3.45-3.64,7.1c-.19.43.45.82.65.38Z" transform="translate(0)"/></g><g class="cls-23"><path class="cls-31" d="M424.9,327.12l9-9.9c.32-.36-.21-.89-.53-.53l-9,9.9c-.33.36.2.89.53.53Z" transform="translate(0)"/></g><g class="cls-23"><path class="cls-31" d="M403.74,296.56A77.51,77.51,0,0,1,416.41,309c.3.38.83-.15.53-.53A77.51,77.51,0,0,0,404.27,296c-.38-.3-.91.23-.53.53Z" transform="translate(0)"/></g><path class="cls-28" d="M401.58,386.47h43.34a0,0,0,0,1,0,0v23a17.81,17.81,0,0,1-17.81,17.81h-7.72a17.81,17.81,0,0,1-17.81-17.81v-23A0,0,0,0,1,401.58,386.47Z"/><g class="cls-33"><path class="cls-27" d="M400.68,401a18.29,18.29,0,0,0,11.78-18.76c-.09-1-1.59-1-1.5,0a16.78,16.78,0,0,1-10.68,17.31c-.9.34-.51,1.79.4,1.45Z" transform="translate(0)"/><path class="cls-27" d="M400.67,395.87a11.79,11.79,0,0,0,6.19-13.35c-.23-.94-1.68-.54-1.45.4a10.28,10.28,0,0,1-5.5,11.66c-.87.42-.11,1.72.76,1.29Z" transform="translate(0)"/><path class="cls-27" d="M402,408.6a20.3,20.3,0,0,1,19.49,21.34c0,1,1.46,1,1.5,0a21.8,21.8,0,0,0-21-22.84c-1,0-1,1.46,0,1.5Z" transform="translate(0)"/><path class="cls-27" d="M401.47,413a16.62,16.62,0,0,1,13.08,16.45.75.75,0,0,0,1.5,0,18.1,18.1,0,0,0-14.18-17.89c-.94-.21-1.34,1.24-.4,1.44Z" transform="translate(0)"/><path class="cls-27" d="M415.68,386.17c-2.82,8.33,3.32,15.64,8.33,21.56,2.79,3.3,5.59,6.81,6.8,11a18.65,18.65,0,0,1-1.12,13.12c-.42.87.87,1.63,1.29.76a20.28,20.28,0,0,0,1.81-11.78,24.23,24.23,0,0,0-5.24-11.16c-5-6.51-13.55-13.92-10.42-23.15.31-.91-1.14-1.31-1.45-.39Z" transform="translate(0)"/><path class="cls-27" d="M435.32,385.5a17,17,0,0,0,12,15.39c.92.28,1.32-1.17.39-1.45a15.48,15.48,0,0,1-10.93-13.94c-.05-1-1.55-1-1.5,0Z" transform="translate(0)"/><path class="cls-27" d="M429.62,384.15a34.27,34.27,0,0,0,16.86,26.44.75.75,0,0,0,.76-1.29,32.7,32.7,0,0,1-16.12-25.15c-.08-.95-1.59-1-1.5,0Z" transform="translate(0)"/><line class="cls-34" x1="398.05" y1="396.44" x2="449.15" y2="396.44"/></g><g class="cls-25"><path class="cls-24" d="M406.58,418.41l-1.27.3a10.48,10.48,0,0,0-.48,1,17.76,17.76,0,0,0,14.56,7.58h7.72a17.81,17.81,0,0,0,17.8-17.81v-23h-5.13A68.93,68.93,0,0,1,406.58,418.41Z" transform="translate(0)"/></g><path class="cls-24" d="M109.54,257.29h109.7a50.16,50.16,0,0,1,50.16,50.16V329a0,0,0,0,1,0,0h-210a0,0,0,0,1,0,0V307.45A50.16,50.16,0,0,1,109.54,257.29Z"/><path class="cls-35" d="M262,290.63h6a14.91,14.91,0,0,1,14.91,14.91v87.59a0,0,0,0,1,0,0H247.07a0,0,0,0,1,0,0V305.54A14.91,14.91,0,0,1,262,290.63Z"/><path class="cls-28" d="M266,290.63h6a14.91,14.91,0,0,1,14.91,14.91v87.59a0,0,0,0,1,0,0H251.07a0,0,0,0,1,0,0V305.54A14.91,14.91,0,0,1,266,290.63Z"/><path class="cls-35" d="M60.8,290.63h6a14.91,14.91,0,0,1,14.91,14.91v87.59a0,0,0,0,1,0,0H45.88a0,0,0,0,1,0,0V305.54A14.91,14.91,0,0,1,60.8,290.63Z"/><path class="cls-28" d="M56.8,290.63h6a14.91,14.91,0,0,1,14.91,14.91v87.59a0,0,0,0,1,0,0H41.88a0,0,0,0,1,0,0V305.54A14.91,14.91,0,0,1,56.8,290.63Z"/><rect class="cls-24" x="77.72" y="369.8" width="173.35" height="23.34"/><path class="cls-35" d="M77.72,335H251.9a0,0,0,0,1,0,0v32.92A7.92,7.92,0,0,1,244,375.8H85.64a7.91,7.91,0,0,1-7.91-7.91V335A0,0,0,0,1,77.72,335Z"/><rect class="cls-28" x="77.72" y="328.96" width="174.18" height="40.84"/><polygon class="cls-19" points="279.4 430.64 274.19 430.64 266.49 393.14 276.9 393.14 279.4 430.64"/><polygon class="cls-19" points="57.3 430.64 62.51 430.64 70.22 393.14 59.8 393.14 57.3 430.64"/><path class="cls-12" d="M182.51,113.23c-9,.32-16.13,7.66-15.82,16.39,0,.21,0,.41.05.61a10,10,0,0,0-10.29-1.6c-5.11,2.34-7,9.06-4.32,15s9.08,8.9,14.19,6.57c3.58-1.64,5.59-5.43,5.54-9.61a16.63,16.63,0,0,0,11.77,4.24c9-.32,16.12-7.66,15.81-16.39S191.55,112.91,182.51,113.23Z" transform="translate(0)"/><path class="cls-36" d="M199.42,130a22.54,22.54,0,0,0-14.67-3.29c-6.22.64-12.07,3.32-17.47,6.48a40.11,40.11,0,0,1-6.42,3.37,10.65,10.65,0,0,1-7.12.36,6.93,6.93,0,0,1-2.52-1.58,13,13,0,0,0,.91,8.31c2.73,6,9.08,8.9,14.19,6.57,3.58-1.64,5.59-5.43,5.54-9.61a16.63,16.63,0,0,0,11.77,4.24A16.18,16.18,0,0,0,199.42,130Z" transform="translate(0)"/><ellipse class="cls-12" cx="183.3" cy="165.62" rx="30.21" ry="31.25" transform="translate(-5.76 6.61) rotate(-2.03)"/><path class="cls-37" d="M169.29,187.8s-1,19.21-.84,23.38c1.75,2.44,8.59,7.2,8.59,7.2l10.62-6.22-.47-13.32Z" transform="translate(0)"/><path class="cls-38" d="M169,193.46c3.93,5.68,9.91,11.48,18.46,13.11l-.28-7.73-17.9-11S169.16,190.19,169,193.46Z" transform="translate(0)"/><path class="cls-37" d="M159.49,176.71c1.34,3.95,9.24,24.58,28.1,25.41a2.61,2.61,0,0,0,1.07-.17c13-4.72,24-15,23.49-28.18-.47-13.33-9.36-28.86-19.41-30.17s-25.65,5.91-30.17,19.42a125.24,125.24,0,0,0-3.18,12.35A2.65,2.65,0,0,0,159.49,176.71Z" transform="translate(0)"/><path class="cls-37" d="M118.56,314l58.2,11.17a4.8,4.8,0,0,1,3.59,3l8.41,22a6.24,6.24,0,0,1-2.19,7.28c-3.44,2.49-8.59,4.24-12.18-3.43a127.52,127.52,0,0,1-5.59-13.66,4.8,4.8,0,0,0-5.19-3.27c-10.27,1.36-36.9,4.42-47.55,1.09C102.72,334,118.56,314,118.56,314Z" transform="translate(0)"/><path class="cls-37" d="M201.9,364.8l-14,38.16a6.61,6.61,0,0,0,.29,5.23L199.08,430a8.15,8.15,0,0,0,6.79,4.48c5.5.33,13.29-.18,9.36-6.35-3.72-5.85-7.78-11.69-10.23-15.16a6.56,6.56,0,0,1-.53-6.71l19.1-39-20.84-2.5" transform="translate(0)"/><g class="cls-25"><path class="cls-37" d="M218.41,376.24a1,1,0,0,0-.52-.32A50.14,50.14,0,0,0,206.46,373a41.08,41.08,0,0,1-7.12-1.23L198,375.37A23.32,23.32,0,0,0,213.7,386.5l.42.06,3.86-7.87c.15-.5.31-1,.45-1.48A1.1,1.1,0,0,0,218.41,376.24Z" transform="translate(0)"/></g><path class="cls-39" d="M140.23,349.8S136.06,329,143.56,319c15,2.5,35,6.67,35,6.67s13,3.47,21.21,5.72a6,6,0,0,1,4,7.74c-4.36,12.32-10.26,32.38-10.26,32.38s18.34,15.83,37.51,5c6.66-19.17,20.83-55,14.16-63.34-5-6.67-42.5-17.5-42.5-17.5l-62.5-2.5s-57.51.83-60,29.17C78.55,336.46,101.06,349.8,140.23,349.8Z" transform="translate(0)"/><g class="cls-25"><path class="cls-39" d="M140.28,326.23c-2.14.15-4.32.45-6.37.63-10,.9-20.59-2.41-27.48-9.74a27.41,27.41,0,0,1-7.21-16c-10,4.31-18.1,11-19,21.22-1.67,14.16,20.84,27.5,60,27.5C140.23,349.8,137.6,336.65,140.28,326.23Z" transform="translate(0)"/></g><path class="cls-40" d="M142.73,251.46s-14.17,16.67-.84,29.17a149,149,0,0,1-.83,16.66s-35-12.5-10.84-54.17C134.39,234.79,142.73,251.46,142.73,251.46Z" transform="translate(0)"/><path class="cls-37" d="M205.65,251.46s14.17,16.67.83,29.17a147.2,147.2,0,0,0,.84,16.66s35-12.5,10.83-54.17C214,234.79,205.65,251.46,205.65,251.46Z" transform="translate(0)"/><g class="cls-25"><path class="cls-39" d="M209.49,324.86a11.31,11.31,0,0,0-4.38-1.17c-18.88-2.37-37.76-6.75-56.64-9.13-1.56-.19-3.32-.34-4.53.67-.9.74-1.24,3.1-1.13,4.84.24-.38.48-.75.75-1.11,15,2.5,35,6.67,35,6.67s13,3.47,21.21,5.72a6,6,0,0,1,4,7.74c-4.36,12.32-10.26,32.38-10.26,32.38a42,42,0,0,0,13.3,7.15,7.19,7.19,0,0,0,1-.81c2.23-2.21,2.58-5.64,2.79-8.77q1.13-16.46,2.26-32.92a22.57,22.57,0,0,0-.15-6.2A7.58,7.58,0,0,0,209.49,324.86Z" transform="translate(0)"/></g><g class="cls-25"><path class="cls-37" d="M141.77,339.24a53.56,53.56,0,0,1,3.42-20.17L137,317.5a15.55,15.55,0,0,0-1.45,2c-3.62,5.87-4.55,13-5,19.85,0,.09,0,.19,0,.29C134.12,339.63,138,339.48,141.77,339.24Z" transform="translate(0)"/></g><path class="cls-41" d="M141.06,254s-13.34-3.34-18.34-14.17c4.53-6.79,12.89-16.26,17.8-21.65a18.92,18.92,0,0,1,9.29-5.58c6.77-1.72,17.51-4.44,18.65-4.44,2.5,5,14.95,6.67,19.12,1.67,4.82-.49,11.47,1.26,16.08,2.82a18.83,18.83,0,0,1,9,6.48L227.73,239s-5,10.83-20.83,13.33c-.84,16.67-.84,40.84-.84,40.84l-65.83-.84Z" transform="translate(0)"/><g class="cls-42"><path class="cls-41" d="M206.06,293.13s0-8.38.17-18.67a87.49,87.49,0,0,0-12.4-11.69c-6.84-5.55-14-10.89-19.28-18-7.56-10.16-10.43-23-10.42-35.81-4,.95-10,2.46-14.32,3.56a18.92,18.92,0,0,0-9.29,5.58c-4.91,5.39-13.27,14.86-17.8,21.65,5,10.83,18.34,14.17,18.34,14.17l-.83,38.33Z" transform="translate(0)"/></g><path class="cls-12" d="M161.17,170.57c.83,0,14.76-7.19,18.36-23.16,1.1,7.46,8.86,14.69,19.81,17.64s12.84,9.55,12.9,11.22c.48-10,0-22.52-4.25-25.71s-10.43-12.13-28.67-9c-10.77,2.06-20.2,18.23-19,29" transform="translate(0)"/><path class="cls-12" d="M212.19,168a44.4,44.4,0,0,1,2.18,7.75,29.44,29.44,0,0,1,.52,8.15,12.92,12.92,0,0,1-1,4.12c-.53,1.28-1.2,2.43-1.79,3.57-1.2,2.24-2.22,4.67-1.7,7.23l-.29.09a7.85,7.85,0,0,1-.48-4,17.36,17.36,0,0,1,1-3.94c.45-1.25.92-2.47,1.27-3.65a12.21,12.21,0,0,0,.5-3.54,37.5,37.5,0,0,0-.94-7.43c-.53-2.48-1.2-4.95-1.95-7.37Z" transform="translate(0)"/><path class="cls-37" d="M164.16,173.85c1.06,3.76-.22,7.43-2.88,8.18s-5.68-1.69-6.74-5.45.22-7.43,2.88-8.18S163.09,170.09,164.16,173.85Z" transform="translate(0)"/><g class="cls-43"><path class="cls-1" d="M128.24,228l71.69-.67,20.24-.19a.75.75,0,0,0,0-1.5l-71.7.67-20.23.19a.75.75,0,0,0,0,1.5Z" transform="translate(0)"/><path class="cls-1" d="M128.24,217.61l71.69-.67,20.24-.18a.75.75,0,0,0,0-1.5l-71.7.66-20.23.19a.75.75,0,0,0,0,1.5Z" transform="translate(0)"/><path class="cls-1" d="M122.89,238.48q41.46.86,82.94.26,11.74-.17,23.48-.46a.75.75,0,0,0,0-1.5q-41.46,1-82.94.57-11.73-.12-23.48-.37a.75.75,0,0,0,0,1.5Z" transform="translate(0)"/><path class="cls-1" d="M122.89,248.83q41.46.85,82.94.25,11.74-.17,23.48-.45c1,0,1-1.53,0-1.5q-41.46,1-82.94.57-11.73-.13-23.48-.37a.75.75,0,0,0,0,1.5Z" transform="translate(0)"/></g><path class="cls-44" d="M200.89,233a23.56,23.56,0,0,1,5.85,19.44c-.57,3.46-1.92,7-1.14,10.39" transform="translate(0)"/><line class="cls-44" x1="142.73" y1="247.88" x2="142.73" y2="258.43"/><path class="cls-45" d="M177.93,172.9c.06,1.61-.64,2.94-1.56,3s-1.71-1.25-1.77-2.85.64-3,1.56-3S177.87,171.29,177.93,172.9Z" transform="translate(0)"/><path class="cls-45" d="M200,172.53c0,1.61-.64,2.94-1.56,3s-1.72-1.24-1.77-2.85.64-2.94,1.56-3S200,170.92,200,172.53Z" transform="translate(0)"/><circle class="cls-46" cx="177.11" cy="173.34" r="9.17" transform="translate(-42.82 59.12) rotate(-16.94)"/><path class="cls-46" d="M191.27,172.84a9.17,9.17,0,1,1,9.49,8.84A9.17,9.17,0,0,1,191.27,172.84Z" transform="translate(0)"/><path class="cls-47" d="M195.48,162.27s4.85-4.35,10-.36" transform="translate(0)"/><path class="cls-47" d="M170.5,163.15s4.85-4.34,10-.35" transform="translate(0)"/><path class="cls-47" d="M183,186.14s3.78,7.43,11.35,2.82" transform="translate(0)"/><path class="cls-47" d="M180.89,185.72a3,3,0,0,0,3.3-.95" transform="translate(0)"/><line class="cls-46" x1="186.28" y1="171.31" x2="191.32" y2="171.31"/><path class="cls-48" d="M205.93,308.13H139.25a3.75,3.75,0,0,1-3.75-3.75h0a3.75,3.75,0,0,1,3.75-3.75h66.68a3.75,3.75,0,0,1,3.75,3.75h0A3.75,3.75,0,0,1,205.93,308.13Z" transform="translate(0)"/><path class="cls-49" d="M205.93,300.63H138.42l-7.62-43.82a3.5,3.5,0,0,1,3.45-4.1h76.61a3.5,3.5,0,0,1,3.44,4.16Z" transform="translate(0)"/><path class="cls-48" d="M167.59,277.29a5,5,0,1,1,5,5A5,5,0,0,1,167.59,277.29Z" transform="translate(0)"/><g class="cls-42"><path class="cls-48" d="M205.65,300.63a131.72,131.72,0,0,1-66.33-47.92h-5.07a3.5,3.5,0,0,0-3.45,4.1l7.62,43.82Z" transform="translate(0)"/></g><g class="cls-50"><path class="cls-48" d="M209.23,306.12a5.09,5.09,0,0,0-1.68-1,13.42,13.42,0,0,0-5.51-.24,68.16,68.16,0,0,1-29.53-4.23H139.25a3.75,3.75,0,0,0,0,7.5h66.68A3.74,3.74,0,0,0,209.23,306.12Z" transform="translate(0)"/></g><path class="cls-12" d="M196.11,139.14a9.93,9.93,0,0,0,5.31-5,23.55,23.55,0,0,0,1.91-8.57c.08-1-1.42-1-1.5,0-.37,4.46-1.29,10.32-6.11,12.13-.9.34-.51,1.79.39,1.45Z" transform="translate(0)"/><path class="cls-12" d="M168.11,129.63a12.76,12.76,0,0,1,2.13-14.55c.66-.7-.4-1.76-1.06-1.06a14.32,14.32,0,0,0-2.37,16.37c.44.86,1.73.1,1.3-.76Z" transform="translate(0)"/><path class="cls-12" d="M165.53,166.65a9.7,9.7,0,0,0-2.16,7.44,56.47,56.47,0,0,0,1.54,8.22,30.69,30.69,0,0,1,.82,4.47,15.88,15.88,0,0,1-.22,4.62,34.57,34.57,0,0,1-3.23,8.3l-.27-.12a37.33,37.33,0,0,0,2-8.4,18.09,18.09,0,0,0-1.41-8.18c-.49-1.36-1.05-2.74-1.53-4.19a13.9,13.9,0,0,1-.71-4.68,10.17,10.17,0,0,1,1.34-4.72,6.41,6.41,0,0,1,3.67-3Z" transform="translate(0)"/><path class="cls-1" d="M189.34,118.23A10.62,10.62,0,0,1,193,132.44a14.76,14.76,0,0,0-3.68-14.21Z" transform="translate(0)"/><path class="cls-1" d="M185.49,146.25a32.63,32.63,0,0,0,4.34,6.7,33.64,33.64,0,0,0,5.87,5.41,16.62,16.62,0,0,1-10.21-12.11Z" transform="translate(0)"/><path class="cls-1" d="M190.6,130.58c0-1.13,0-2.11-.12-3.12s-.2-2-.29-3.11a5,5,0,0,1,.41,6.23Z" transform="translate(0)"/><polygon class="cls-15" points="239.07 109.65 236.79 118.23 241.34 118.23 239.07 109.65"/><circle class="cls-51" cx="235.59" cy="116.87" r="4.42"/><polygon class="cls-19" points="303.62 180.15 301.26 184.22 305.97 184.22 303.62 180.15"/><polygon class="cls-19" points="308.32 184.41 305.97 188.48 310.67 188.48 308.32 184.41"/><polygon class="cls-19" points="302.61 186.44 300.26 190.51 304.96 190.51 302.61 186.44"/><polygon class="cls-21" points="224.4 156.38 222.87 153.73 225.93 153.73 224.4 156.38"/><polygon class="cls-21" points="227.47 153.6 225.93 150.95 229 150.95 227.47 153.6"/><polygon class="cls-21" points="223.75 152.28 222.21 149.62 225.28 149.62 223.75 152.28"/></g></g></svg>