<svg id="Layer_1" data-name="Layer 1" xmlns="http://www.w3.org/2000/svg" viewBox="0 0 540 33"><defs><style>.cls-1{fill:#7fa08c;}</style></defs><path class="cls-1" d="M34.35,12.47a1.84,1.84,0,0,0-1.58-1.26l-9.94-.9L18.9,1.11a1.83,1.83,0,0,0-3.37,0l-3.92,9.2-9.95.9A1.84,1.84,0,0,0,.09,12.47a1.82,1.82,0,0,0,.53,1.94L8.14,21,5.92,30.76A1.83,1.83,0,0,0,7.71,33a1.88,1.88,0,0,0,.94-.26l8.57-5.12,8.57,5.12a1.83,1.83,0,0,0,2.72-2L26.3,21l7.51-6.59A1.84,1.84,0,0,0,34.35,12.47Z" transform="translate(0 0)"/><path class="cls-1" d="M539.91,12.47a1.84,1.84,0,0,0-1.57-1.26l-9.94-.9-3.93-9.2a1.83,1.83,0,0,0-3.37,0l-3.93,9.2-9.94.9a1.83,1.83,0,0,0-1,3.2L513.7,21l-2.21,9.76a1.81,1.81,0,0,0,.71,1.89,1.82,1.82,0,0,0,1.07.35,1.85,1.85,0,0,0,.94-.26l8.57-5.12,8.57,5.12a1.83,1.83,0,0,0,2.73-2L531.86,21l7.52-6.59A1.82,1.82,0,0,0,539.91,12.47Z" transform="translate(0 0)"/><path class="cls-1" d="M287.13,12.47a1.84,1.84,0,0,0-1.58-1.26l-9.94-.9-3.93-9.2a1.83,1.83,0,0,0-3.36,0l-3.93,9.2-9.94.9a1.84,1.84,0,0,0-1.58,1.26,1.82,1.82,0,0,0,.54,1.94L260.92,21l-2.22,9.76A1.84,1.84,0,0,0,260.49,33a1.88,1.88,0,0,0,.94-.26L270,27.62l8.57,5.12a1.84,1.84,0,0,0,2.73-2L279.08,21l7.51-6.59A1.84,1.84,0,0,0,287.13,12.47Z" transform="translate(0 0)"/><path class="cls-1" d="M413.52,12.47a1.84,1.84,0,0,0-1.58-1.26l-9.94-.9-3.92-9.2a1.83,1.83,0,0,0-3.37,0l-3.93,9.2-9.94.9a1.83,1.83,0,0,0-1,3.2L387.31,21l-2.21,9.76a1.81,1.81,0,0,0,.71,1.89,1.82,1.82,0,0,0,1.07.35,1.85,1.85,0,0,0,.94-.26l8.57-5.12L405,32.74a1.84,1.84,0,0,0,2.73-2L405.47,21,413,14.41A1.8,1.8,0,0,0,413.52,12.47Z" transform="translate(0 0)"/><path class="cls-1" d="M160.74,12.47a1.84,1.84,0,0,0-1.58-1.26l-9.94-.9-3.93-9.2A1.84,1.84,0,0,0,143.61,0a1.82,1.82,0,0,0-1.68,1.11L138,10.31l-9.94.9a1.84,1.84,0,0,0-1.58,1.26,1.8,1.8,0,0,0,.54,1.94L134.53,21l-2.22,9.76A1.84,1.84,0,0,0,134.1,33a1.88,1.88,0,0,0,.94-.26l8.57-5.12,8.57,5.12a1.83,1.83,0,0,0,2.72-2L152.69,21l7.51-6.59A1.84,1.84,0,0,0,160.74,12.47Z" transform="translate(0 0)"/></svg>